<svg width="78" height="79" viewBox="0 0 78 79" fill="none" xmlns="http://www.w3.org/2000/svg">
<path d="M59.5565 38.5784V38.551C57.6617 40.1747 55.8815 41.714 54.4451 42.9578V64.203C54.4451 66.2164 52.8313 67.851 50.8433 67.851H27.9311C26.6298 67.851 25.3392 67.7135 24.1005 67.4607V60.7868V55.6521V55.009C24.0899 53.7122 23.0595 52.6791 21.7791 52.6791H9.50593C9.25587 51.4137 9.12065 50.1168 9.12065 48.7988V15.6085C9.12065 13.6053 10.734 11.9713 12.7225 11.9713H50.8435C52.8314 11.9713 54.4453 13.6053 54.4453 15.6085V15.9773L54.43 16.2474C54.4352 16.2423 54.4401 16.2378 54.4453 16.2321V16.2624C55.7775 14.8178 57.1937 13.4475 58.6402 12.2031C58.6926 12.1507 58.7552 12.1084 58.807 12.0662C57.4746 8.96641 54.3929 6.78418 50.8435 6.78418H12.7223C7.91284 6.78418 3.99902 10.7483 3.99902 15.6085V48.7988C3.99902 50.4544 4.17594 52.1203 4.49861 53.7333C6.4454 63.18 13.7216 70.5604 23.0696 72.532C24.6521 72.8589 26.2862 73.0273 27.9311 73.0273H50.8433C55.6528 73.0273 59.5565 69.0736 59.5565 64.2028V48.5838L59.5698 38.5672C59.5651 38.5706 59.5612 38.5748 59.5565 38.5784Z" fill="url(#paint0_linear_1449_1119)"/>
<path d="M45.7552 43.5214C45.128 43.0416 44.363 42.3533 43.6016 41.5836C42.8402 40.8118 42.1601 40.0382 41.6868 39.4044C41.5873 39.271 41.4566 39.0893 41.3275 38.884C41.3127 38.8577 41.3 38.8406 41.2852 38.8129L41.2843 38.8139C41.2833 38.8118 41.2818 38.8103 41.2807 38.8082C41.2803 38.8087 41.2798 38.8092 41.2788 38.8107C41.2762 38.806 41.2736 38.8026 41.2712 38.7979C38.1146 41.9422 34.6938 43.9206 32.0792 45.0816C31.8296 47.4208 31.2706 49.7195 30.6931 51.6335C30.6742 51.6936 30.6559 51.7601 30.6371 51.8194C30.6295 51.8457 30.6213 51.8684 30.6138 51.894C30.2513 53.0308 29.8853 54.0037 29.5829 54.7203C29.3659 54.7192 29.1396 54.7965 28.9634 54.9751C28.6651 55.2772 28.629 55.7199 28.8454 56.0217C28.8583 56.0408 28.8678 56.0613 28.8796 56.0803C28.8826 56.0855 28.8831 56.0905 28.8861 56.0958L28.8871 56.0942C28.8886 56.0958 28.8891 56.0978 28.8907 56.0999L28.8927 56.0979C28.8963 56.102 28.8972 56.1066 28.9008 56.1109L30.0851 54.9118C30.0754 54.9016 30.0647 54.8927 30.0551 54.8836L35.7089 48.9288C35.3926 48.2873 35.5385 47.4379 36.1226 46.847C36.8348 46.1262 37.9276 46.0645 38.563 46.708C39.1989 47.3515 39.1379 48.4573 38.4253 49.1781C37.8417 49.7691 37.0031 49.9167 36.3687 49.5971L32.8924 52.9779L29.6383 56.1243L29.6581 56.1228L29.6433 56.1377C29.6551 56.133 29.6676 56.1275 29.6805 56.1218L29.6983 56.1213L29.3212 56.5037L29.3193 56.5048V56.5052L29.3049 56.5202C29.5972 56.8157 30.0989 56.7863 30.4258 56.4564C30.6322 56.2473 30.7186 55.9698 30.684 55.7186C32.7554 54.9176 36.4146 53.6816 40.1693 53.2712C41.1981 50.901 42.8796 47.8781 45.4479 44.978C45.7325 44.6588 46.0224 44.3391 46.3298 44.0231C46.3451 44.0087 46.3572 43.9922 46.373 43.9778C46.373 43.9778 46.3726 43.9772 46.372 43.9772C46.3735 43.9759 46.375 43.9742 46.3767 43.9727C46.3756 43.9716 46.3751 43.9712 46.3742 43.9706C46.3777 43.967 46.3802 43.964 46.3838 43.9598C46.1299 43.8076 45.9107 43.6413 45.7552 43.5214Z" fill="url(#paint1_linear_1449_1119)"/>
<path d="M72.8913 12.0367L72.8186 11.9625C72.0766 11.23 71.0919 10.8428 69.9706 10.8428C69.3499 10.8428 68.6764 10.9601 67.9679 11.1908C66.1219 11.792 63.8919 13.2135 61.3388 15.4123C59.5725 16.9336 57.8727 18.6457 56.2899 20.4975C55.9871 20.8457 43.0895 36.1345 42.5929 36.7039C41.7166 37.6459 42.599 38.83 42.8888 39.2187C43.2466 39.698 43.7569 40.2797 44.3263 40.8558C44.8956 41.4322 45.4705 41.9488 45.9442 42.3106C46.2568 42.55 46.8398 42.9948 47.4929 42.9944C47.8458 42.9948 48.1604 42.8662 48.4196 42.6197C48.8593 42.2258 64.4578 28.7702 64.4578 28.7702C66.2892 27.166 67.9802 25.445 69.4843 23.6571C71.6574 21.0737 73.0607 18.8163 73.6554 16.948C74.4695 14.3884 73.6892 12.8641 72.8913 12.0367ZM51.5952 36.1936L47.3378 39.9857C47.0807 39.7747 46.6974 39.4375 46.2125 38.9469C45.7286 38.4574 45.3952 38.0687 45.1862 37.8082L48.9385 33.5029L51.4271 36.0223L51.5952 36.1936Z" fill="url(#paint2_linear_1449_1119)"/>
<defs>
<linearGradient id="paint0_linear_1449_1119" x1="59.5698" y1="39.9057" x2="3.99902" y2="39.9057" gradientUnits="userSpaceOnUse">
<stop stop-color="#F35871"/>
<stop offset="1" stop-color="#E03651"/>
</linearGradient>
<linearGradient id="paint1_linear_1449_1119" x1="46.3838" y1="47.761" x2="28.707" y2="47.761" gradientUnits="userSpaceOnUse">
<stop stop-color="#F35871"/>
<stop offset="1" stop-color="#E03651"/>
</linearGradient>
<linearGradient id="paint2_linear_1449_1119" x1="74.0002" y1="26.9186" x2="42.2148" y2="26.9186" gradientUnits="userSpaceOnUse">
<stop stop-color="#F35871"/>
<stop offset="1" stop-color="#E03651"/>
</linearGradient>
</defs>
</svg>
