<svg width="79" height="79" viewBox="0 0 79 79" fill="none" xmlns="http://www.w3.org/2000/svg">
<g clip-path="url(#clip0_1449_1169)">
<path d="M71.5596 15.947L62.0415 19.0117L69.4845 42.1276L79.0026 39.0629L71.5596 15.947Z" fill="url(#paint0_linear_1449_1169)"/>
<path d="M58.9722 22.028C58.5275 20.6779 57.2743 19.8154 55.9188 19.8154C55.6185 19.8154 55.3137 19.8583 55.0135 19.9444L47.7562 22.083L46.0884 22.2535L44.563 21.91C43.5022 21.0904 42.1901 20.6352 40.7972 20.6352C40.3632 20.6352 39.9239 20.6781 39.5008 20.7744C39.4797 20.7744 39.4635 20.7798 39.4417 20.7852L34.4391 21.9099L32.2966 22.392L23.988 19.9444C23.6877 19.8583 23.3828 19.8154 23.0827 19.8154C21.7278 19.8154 20.4686 20.6779 20.0293 22.028L14.1854 39.8601C13.9232 40.669 13.9871 41.558 14.3782 42.3187C14.764 43.0794 15.4444 43.658 16.2588 43.9208L19.4514 44.949L19.6009 44.9971C19.7004 45.0382 19.8028 45.0768 19.9011 45.1098C20.0403 45.565 20.2386 46.0044 20.5063 46.4111C20.6782 46.6739 20.8818 46.9252 21.112 47.1562C21.1869 47.2363 21.2724 47.3164 21.3531 47.3918C21.8774 47.8523 22.4887 48.1899 23.1366 48.4037C23.1758 48.5369 23.2523 48.6598 23.3035 48.7901C23.3446 48.8955 23.3892 48.9985 23.4373 49.1005C23.5536 49.3465 23.6905 49.5796 23.8502 49.8075C23.9292 49.9195 24.0122 50.0288 24.1003 50.1343C24.186 50.2368 24.2463 50.3531 24.3419 50.45C24.9152 51.0286 25.6059 51.4517 26.3666 51.6927C26.5921 52.4426 26.9934 53.1502 27.5774 53.7445C28.1344 54.3176 28.8257 54.7354 29.5755 54.9764C29.9196 55.0897 30.2753 55.1627 30.6362 55.1971L35.3495 60.6657C36.3512 61.9886 37.8624 62.8348 39.501 63.0169C39.7204 63.044 39.9403 63.0542 40.1598 63.0542C41.4243 63.0542 42.6346 62.6689 43.6682 61.9294C44.4933 61.34 45.131 60.5745 45.5541 59.7222C46.5286 59.5938 47.4502 59.2298 48.259 58.6512C49.0734 58.067 49.7213 57.3119 50.1552 56.4386C51.1251 56.3102 52.0459 55.9462 52.8548 55.373C53.6854 54.7786 54.3177 54.0121 54.7407 53.161C55.7153 53.032 56.6369 52.668 57.4457 52.0892C59.7494 50.4451 60.5528 47.4664 59.5511 44.9488L62.7437 43.9206C63.5579 43.6578 64.2323 43.0791 64.6235 42.3185C65.0092 41.5579 65.0793 40.669 64.8163 39.86L58.9722 22.028ZM39.1029 48.6119L39.0884 48.5913L37.3634 49.8191L37.3623 49.8197L37.3418 49.8342L42.9073 57.6231C42.7577 58.282 42.3877 58.8925 41.7988 59.3156C41.3004 59.6695 40.727 59.8405 40.1594 59.8405C39.2813 59.8405 38.4132 59.4284 37.8619 58.6569L36.8451 57.4773L34.1021 54.1912C34.1617 54.1471 34.2214 54.1039 34.278 54.0556C34.3425 54.0122 34.3956 53.9592 34.4547 53.9055L35.108 53.3696C36.0844 52.5753 36.5383 51.2974 36.2665 50.0692C36.1808 49.6847 36.0549 49.3284 35.8687 49.0789C35.3172 48.3344 34.4655 47.9434 33.6032 47.9434C33.019 47.9434 32.4302 48.1254 31.921 48.5003L31.5828 48.7493L31.2972 48.935C32.2634 48.1309 32.6436 46.7796 32.1253 45.6236C31.4333 44.08 29.686 43.5501 28.3083 44.2192C28.1613 44.2837 28.0179 44.3565 27.878 44.4415C28.4415 43.4923 28.424 42.2615 27.7243 41.3195C26.7942 40.0689 25.0264 39.8084 23.7758 40.7378L21.6712 42.288L21.1329 42.1156L17.2448 40.8637L17.2387 40.8618L23.0827 23.0297L31.6698 25.5528L32.1892 25.7083L36.2203 24.8012L39.185 24.1533C37.8542 26.0024 35.2487 29.2681 33.93 30.9978C30.85 35.0373 31.6698 39.1442 35.9545 37.9225C40.8656 36.5218 41.7497 30.4951 45.1793 30.2612L46.4812 30.2099L56.235 45.5384C56.3266 45.6668 56.4068 45.8006 56.4712 45.9343C57.0709 47.1561 56.7225 48.6611 55.5815 49.4755C55.0885 49.8239 54.5263 49.995 53.9639 50.0004L53.4551 49.2878L48.2754 42.0292L46.5551 43.2625L46.5545 43.263L46.534 43.2775L52.0194 50.9592L52.0941 51.0658C51.9494 51.7197 51.58 52.3304 50.9858 52.7535C50.7127 52.9519 50.418 53.0911 50.1071 53.1712C49.866 53.2411 49.6195 53.2784 49.3735 53.2784L43.6844 45.3128L41.9697 46.5333L41.9589 46.541L41.9384 46.5555L47.4985 54.3446C47.3538 55.0034 46.9844 55.6138 46.3948 56.0371C45.9025 56.3855 45.3396 56.5566 44.7772 56.5566L39.1254 48.6427L39.1029 48.6119Z" fill="url(#paint1_linear_1449_1169)"/>
<path d="M16.954 19.0337H16.9534L16.9612 19.0101L7.44359 15.9453L0 39.0596L9.51811 42.1246L16.9366 19.086L16.954 19.0337Z" fill="url(#paint2_linear_1449_1169)"/>
</g>
<defs>
<linearGradient id="paint0_linear_1449_1169" x1="75.2811" y1="27.505" x2="65.763" y2="30.5697" gradientUnits="userSpaceOnUse">
<stop stop-color="#F35871"/>
<stop offset="1" stop-color="#E03651"/>
</linearGradient>
<linearGradient id="paint1_linear_1449_1169" x1="64.9731" y1="41.4348" x2="14.0273" y2="41.4348" gradientUnits="userSpaceOnUse">
<stop stop-color="#F35871"/>
<stop offset="1" stop-color="#E03651"/>
</linearGradient>
<linearGradient id="paint2_linear_1449_1169" x1="16.9612" y1="29.0349" x2="0" y2="29.0349" gradientUnits="userSpaceOnUse">
<stop stop-color="#F35871"/>
<stop offset="1" stop-color="#E03651"/>
</linearGradient>
<clipPath id="clip0_1449_1169">
<rect width="79" height="79" fill="white"/>
</clipPath>
</defs>
</svg>
