<svg width="53" height="53" viewBox="0 0 53 53" fill="none" xmlns="http://www.w3.org/2000/svg">
<path d="M40.2538 3.3125H12.7461C11.8679 3.3135 11.0259 3.66282 10.4049 4.28382C9.78391 4.90481 9.4346 5.74678 9.43359 6.625V46.375C9.4346 47.2532 9.78391 48.0952 10.4049 48.7162C11.0259 49.3372 11.8679 49.6865 12.7461 49.6875H40.2538C41.132 49.6866 41.974 49.3373 42.595 48.7163C43.216 48.0952 43.5653 47.2532 43.5663 46.375V6.625C43.5653 5.74676 43.216 4.90475 42.595 4.28374C41.974 3.66273 41.132 3.31344 40.2538 3.3125ZM41.91 46.375C41.9095 46.8141 41.7348 47.2351 41.4244 47.5456C41.1139 47.8561 40.6929 48.0307 40.2538 48.0312H12.7461C12.307 48.0308 11.8859 47.8562 11.5754 47.5457C11.2649 47.2351 11.0903 46.8141 11.0898 46.375V6.625C11.0903 6.18587 11.2649 5.76485 11.5754 5.45434C11.8859 5.14383 12.307 4.96919 12.7461 4.96875H40.2538C40.6929 4.96925 41.1139 5.14391 41.4244 5.45441C41.7348 5.76491 41.9095 6.18589 41.91 6.625V46.375Z" fill="white"/>
<path d="M15.8784 16.5265H20.235C20.8936 16.5258 21.5251 16.2638 21.9909 15.798C22.4566 15.3323 22.7186 14.7008 22.7193 14.0421V9.68555C22.7186 9.02687 22.4566 8.39538 21.9909 7.92962C21.5251 7.46387 20.8936 7.20189 20.235 7.20117H15.8784C15.2197 7.20189 14.5882 7.46387 14.1225 7.92962C13.6567 8.39538 13.3948 9.02687 13.394 9.68555V14.0421C13.3948 14.7008 13.6567 15.3323 14.1225 15.798C14.5882 16.2638 15.2197 16.5258 15.8784 16.5265ZM15.0503 9.68555C15.0506 9.466 15.1379 9.25553 15.2932 9.10029C15.4484 8.94505 15.6589 8.85771 15.8784 8.85742H20.235C20.4545 8.85771 20.665 8.94505 20.8202 9.10029C20.9755 9.25553 21.0628 9.466 21.0631 9.68555V14.0421C21.0628 14.2616 20.9755 14.4721 20.8202 14.6274C20.665 14.7826 20.4545 14.8699 20.235 14.8702H15.8784C15.6589 14.8699 15.4484 14.7826 15.2932 14.6274C15.1379 14.4721 15.0506 14.2616 15.0503 14.0421V9.68555Z" fill="white"/>
<path d="M38.7414 9.06445H25.2936C25.0769 9.0688 24.8705 9.15796 24.7187 9.31279C24.5669 9.46763 24.4819 9.67579 24.4819 9.8926C24.4819 10.1094 24.567 10.3176 24.7187 10.4724C24.8705 10.6272 25.0769 10.7164 25.2937 10.7207H38.7414C38.9581 10.7164 39.1646 10.6272 39.3163 10.4724C39.4681 10.3176 39.5531 10.1094 39.5531 9.89258C39.5531 9.67577 39.4681 9.46761 39.3163 9.31277C39.1646 9.15794 38.9581 9.06879 38.7414 9.06445Z" fill="white"/>
<path d="M35.8606 14.6631C36.0775 14.6589 36.284 14.5697 36.4359 14.4149C36.5877 14.26 36.6728 14.0518 36.6728 13.8349C36.6727 13.6181 36.5877 13.4098 36.4358 13.255C36.284 13.1002 36.0774 13.0111 35.8606 13.0068H25.2936C25.0767 13.0111 24.8702 13.1002 24.7183 13.255C24.5665 13.4099 24.4814 13.6181 24.4814 13.835C24.4815 14.0519 24.5665 14.2601 24.7184 14.4149C24.8702 14.5698 25.0768 14.6589 25.2936 14.6631H35.8606Z" fill="white"/>
<path d="M38.7413 23.7007H25.2936C25.0767 23.7049 24.8702 23.794 24.7183 23.9489C24.5665 24.1037 24.4814 24.312 24.4814 24.5288C24.4815 24.7457 24.5665 24.9539 24.7184 25.1088C24.8702 25.2636 25.0768 25.3527 25.2936 25.3569H38.7413C38.9581 25.3526 39.1645 25.2634 39.3162 25.1086C39.468 24.9538 39.553 24.7456 39.553 24.5288C39.553 24.312 39.468 24.1038 39.3162 23.949C39.1645 23.7942 38.9581 23.705 38.7413 23.7007Z" fill="white"/>
<path d="M25.2937 29.2993H35.8607C36.0776 29.2951 36.2841 29.206 36.436 29.0511C36.5878 28.8963 36.6729 28.688 36.6729 28.4712C36.6728 28.2543 36.5878 28.0461 36.4359 27.8912C36.2841 27.7364 36.0775 27.6473 35.8607 27.6431H25.2937C25.0769 27.6474 24.8705 27.7366 24.7187 27.8914C24.5669 28.0462 24.4819 28.2544 24.4819 28.4712C24.4819 28.688 24.5669 28.8962 24.7187 29.051C24.8705 29.2058 25.0769 29.295 25.2937 29.2993Z" fill="white"/>
<path d="M20.235 36.4736H15.8784C15.2197 36.4744 14.5882 36.7363 14.1225 37.2021C13.6567 37.6678 13.3948 38.2993 13.394 38.958V43.3146C13.3948 43.9732 13.6567 44.6047 14.1225 45.0705C14.5882 45.5362 15.2197 45.7982 15.8784 45.7989H20.235C20.8936 45.7982 21.5251 45.5362 21.9909 45.0705C22.4566 44.6047 22.7186 43.9732 22.7193 43.3146V38.958C22.7186 38.2993 22.4566 37.6678 21.9909 37.2021C21.5251 36.7363 20.8936 36.4744 20.235 36.4736ZM21.0631 43.3146C21.0628 43.5341 20.9755 43.7446 20.8202 43.8998C20.665 44.0551 20.4545 44.1424 20.235 44.1427H15.8784C15.6589 44.1424 15.4484 44.0551 15.2932 43.8998C15.1379 43.7446 15.0506 43.5341 15.0503 43.3146V38.958C15.0506 38.7385 15.1379 38.528 15.2932 38.3728C15.4484 38.2175 15.6589 38.1302 15.8784 38.1299H20.235C20.4545 38.1302 20.665 38.2175 20.8202 38.3728C20.9755 38.528 21.0628 38.7385 21.0631 38.958V43.3146Z" fill="white"/>
<path d="M38.7413 38.3369H25.2936C25.0767 38.3411 24.8702 38.4303 24.7183 38.5851C24.5665 38.74 24.4814 38.9482 24.4814 39.1651C24.4815 39.3819 24.5665 39.5902 24.7184 39.745C24.8702 39.8998 25.0768 39.9889 25.2936 39.9932H38.7413C38.9581 39.9888 39.1645 39.8997 39.3162 39.7448C39.468 39.59 39.553 39.3818 39.553 39.165C39.553 38.9482 39.468 38.7401 39.3162 38.5852C39.1645 38.4304 38.9581 38.3412 38.7413 38.3369Z" fill="white"/>
<path d="M35.8606 42.2793H25.2936C25.0767 42.2835 24.8702 42.3726 24.7183 42.5275C24.5665 42.6823 24.4814 42.8906 24.4814 43.1074C24.4815 43.3243 24.5665 43.5325 24.7184 43.6874C24.8702 43.8422 25.0768 43.9313 25.2936 43.9355H35.8606C36.0775 43.9313 36.284 43.8422 36.4359 43.6874C36.5877 43.5325 36.6728 43.3243 36.6728 43.1074C36.6728 42.8905 36.5877 42.6823 36.4359 42.5275C36.284 42.3726 36.0775 42.2835 35.8606 42.2793Z" fill="white"/>
<path d="M25.2615 22.8554C25.4179 22.7052 25.5092 22.4996 25.5157 22.2829C25.5222 22.0662 25.4435 21.8555 25.2964 21.6962C25.1494 21.5369 24.9457 21.4415 24.7291 21.4307C24.5126 21.4199 24.3004 21.4944 24.1382 21.6383L22.4418 23.2043C22.2363 22.7947 21.9213 22.45 21.5317 22.2087C21.1421 21.9673 20.6932 21.8387 20.235 21.8372H15.8784C15.2197 21.8379 14.5882 22.0999 14.1225 22.5656C13.6567 23.0314 13.3948 23.6629 13.394 24.3216V28.6781C13.3948 29.3368 13.6567 29.9683 14.1225 30.434C14.5882 30.8998 15.2197 31.1618 15.8784 31.1625H20.235C20.8936 31.1618 21.5251 30.8998 21.9909 30.434C22.4566 29.9683 22.7186 29.3368 22.7193 28.6781V25.202L25.2615 22.8554ZM21.0631 28.6781C21.0628 28.8977 20.9755 29.1081 20.8202 29.2634C20.665 29.4186 20.4545 29.506 20.235 29.5062H15.8784C15.6589 29.506 15.4484 29.4186 15.2932 29.2634C15.1379 29.1081 15.0506 28.8977 15.0503 28.6781V24.3216C15.0506 24.102 15.1379 23.8916 15.2932 23.7363C15.4484 23.5811 15.6589 23.4937 15.8784 23.4934H20.235C20.4545 23.4937 20.665 23.5811 20.8202 23.7363C20.9755 23.8916 21.0628 24.102 21.0631 24.3216V24.477L18.4942 26.8484L17.2257 25.1529C17.0939 24.9777 16.898 24.8619 16.6809 24.8309C16.4638 24.7999 16.2433 24.8563 16.0677 24.9876C15.8921 25.119 15.7758 25.3146 15.7443 25.5316C15.7127 25.7487 15.7685 25.9693 15.8994 26.1452L17.7178 28.5758C17.7878 28.668 17.8762 28.7446 17.9773 28.8007C18.0785 28.8568 18.1903 28.8912 18.3055 28.9018C18.4207 28.9124 18.5368 28.8989 18.6465 28.8621C18.7562 28.8253 18.8571 28.7661 18.9426 28.6882L21.0631 26.7309V28.6781Z" fill="white"/>
</svg>
