<svg width="53" height="53" viewBox="0 0 53 53" fill="none" xmlns="http://www.w3.org/2000/svg">
<path d="M39.0952 24.5683C38.702 24.5683 38.3838 24.2282 38.3838 23.8086V13.3594C38.3838 12.9398 38.702 12.5996 39.0952 12.5996C39.4885 12.5996 39.8067 12.9398 39.8067 13.3594V23.8086C39.8067 24.2282 39.4885 24.5683 39.0952 24.5683Z" fill="white"/>
<path d="M37.8655 50.3127H9.94258C8.87124 50.3127 8 49.382 8 48.2382V6.06966C8 4.92855 8.86986 4 9.93842 4H31.0442C31.4375 4 31.7557 4.34018 31.7557 4.75975C31.7557 5.17933 31.4375 5.51951 31.0442 5.51951H9.93842C9.65425 5.51951 9.42289 5.76621 9.42289 6.06966V48.2382C9.42289 48.5443 9.65634 48.7932 9.94258 48.7932H37.8655C38.1517 48.7932 38.3852 48.5443 38.3852 48.2382V45.7383C38.3852 45.3187 38.7034 44.9785 39.0966 44.9785C39.4899 44.9785 39.8081 45.3187 39.8081 45.7383V48.2382C39.8081 49.382 38.9368 50.3127 37.8655 50.3127Z" fill="white"/>
<path d="M32.6533 14.5353C31.3548 14.5353 30.3335 13.4439 30.3335 12.1025V4.75943C30.3335 4.45226 30.5065 4.17514 30.7726 4.05754C31.0394 3.94069 31.3444 4.00487 31.548 4.22226L39.6004 12.8214C39.7984 13.0329 39.8616 13.3486 39.7623 13.6279C39.6636 13.9076 39.4197 14.0991 39.1404 14.1169L32.6561 14.5353H32.6533ZM31.7564 6.59352V12.1025C31.7564 12.607 32.1406 13.0173 32.613 13.0173L37.4765 12.7023L31.7564 6.59352Z" fill="white"/>
<path d="M42.7113 41.6959C42.0853 41.6959 41.4962 41.4358 41.0536 40.9632L36.1957 35.7747C35.9178 35.478 35.9178 34.9972 36.1957 34.7004C36.4736 34.4036 36.9239 34.4036 37.2018 34.7004L42.0596 39.8885C42.407 40.2594 43.0149 40.2602 43.3623 39.8885C43.5367 39.7026 43.6319 39.4555 43.6319 39.1929C43.6319 38.9302 43.5367 38.6832 43.3623 38.4977L38.5045 33.3096C38.2266 33.0128 38.2266 32.5321 38.5045 32.2353C38.7824 31.9385 39.2326 31.9385 39.5105 32.2353L44.3683 37.423C44.8109 37.8956 45.0548 38.524 45.0548 39.1929C45.0548 39.8618 44.8109 40.4902 44.3683 40.9632C43.9258 41.4354 43.3373 41.6959 42.7113 41.6959Z" fill="white"/>
<path d="M40.4047 44.1611C39.7787 44.1611 39.1895 43.9006 38.7476 43.4273L33.8891 38.24C33.6112 37.9435 33.6112 37.4624 33.8891 37.1656C34.167 36.8688 34.6172 36.8688 34.8951 37.1656L39.7537 42.3533C40.1024 42.725 40.7069 42.7247 41.0557 42.3537C41.2301 42.1675 41.3252 41.9204 41.3252 41.6577C41.3252 41.3955 41.2301 41.1484 41.0557 40.9629L36.1978 35.7745C35.9199 35.4777 35.9199 34.9969 36.1978 34.7001C36.4757 34.4033 36.9259 34.4033 37.2039 34.7001L42.0617 39.8882C42.5043 40.3608 42.7481 40.9892 42.7481 41.6577C42.7481 42.3266 42.5043 42.955 42.0617 43.428C41.6198 43.9006 41.0307 44.1611 40.4047 44.1611Z" fill="white"/>
<path d="M45.0221 39.2291C44.4023 39.2291 43.7972 38.9623 43.3616 38.4968L38.5044 33.3098C38.2265 33.013 38.2265 32.5323 38.5044 32.2355C38.7823 31.9387 39.2325 31.9387 39.5105 32.2355L44.3676 37.4224C44.7657 37.8476 45.5043 37.763 45.8086 37.2392C46.0274 36.8645 45.935 36.3091 45.5953 35.9467L39.1443 29.0662L37.3636 30.9593C36.5834 31.7933 35.5419 32.2529 34.4338 32.2529C33.5576 32.2462 32.8316 31.7143 32.5051 30.8647C32.1674 29.9844 32.3508 28.9865 32.9726 28.3221L35.5329 25.5839C35.2327 25.4359 34.9201 25.3283 34.604 25.2656C33.5507 25.0568 32.6524 24.645 31.9277 24.0403L25.9659 30.4147C26.5238 31.0792 26.9274 31.8805 27.14 32.7445L27.229 33.1073C27.2943 33.3714 27.3881 33.6363 27.509 33.8937C27.6847 34.2692 27.5423 34.7255 27.1907 34.9132C26.8392 35.1012 26.4126 34.9484 26.2361 34.5734C26.0722 34.2228 25.9429 33.8596 25.8526 33.4938L25.763 33.1295C25.5962 32.448 25.2648 31.82 24.8056 31.3136L24.4596 30.933C24.1893 30.6351 24.1921 30.1606 24.4665 29.8672L31.3879 22.467C31.6554 22.1817 32.0826 22.1691 32.3647 22.4362L32.6287 22.687C33.195 23.2249 33.9474 23.5899 34.8638 23.7713C35.6579 23.929 36.4333 24.2922 37.1058 24.8216C37.2851 24.9622 37.3921 25.184 37.3956 25.4211C37.399 25.6581 37.299 25.8833 37.1246 26.0298L33.9787 29.3964C33.7174 29.6754 33.7265 30.0401 33.8217 30.2886C33.8731 30.4214 34.0322 30.7304 34.4122 30.7334C35.1619 30.7334 35.8462 30.4318 36.359 29.8839L38.1411 27.9897C38.6948 27.4002 39.5966 27.4009 40.1503 27.9912L46.6013 34.8716C47.41 35.7345 47.5851 37.0678 47.0168 38.0416C46.5846 38.7846 45.8384 39.2291 45.0221 39.2291Z" fill="white"/>
<path d="M38.0932 46.6311C37.4686 46.6311 36.8794 46.3692 36.4347 45.8932L35.1654 44.5384C34.8875 44.242 34.8875 43.7609 35.1654 43.4641C35.4433 43.1673 35.8935 43.1673 36.1714 43.4641L37.4408 44.8193C37.8118 45.2158 38.4565 45.1891 38.8067 44.7499C39.1013 44.3745 39.0471 43.7475 38.6823 43.3573L33.8891 38.2393C33.6112 37.9429 33.6112 37.4617 33.8891 37.165C34.167 36.8682 34.6172 36.8682 34.8951 37.165L39.6884 42.2829C40.5763 43.2319 40.6666 44.7466 39.8933 45.7311C39.4348 46.305 38.7803 46.6311 38.0932 46.6311Z" fill="white"/>
<path d="M24.26 31.4779C24.2593 31.4779 24.258 31.4779 24.2573 31.4779C23.8008 31.4772 23.3714 31.2865 23.0498 30.9404L20.8696 28.5973C20.593 28.3001 20.5937 27.8205 20.8709 27.5244L29.211 18.6181C29.3444 18.4756 29.525 18.3955 29.714 18.3955C29.9023 18.3955 30.0843 18.476 30.2177 18.6188L32.4007 20.9556C33.0635 21.6656 33.0628 22.8201 32.4 23.5294L25.4669 30.9437C25.1445 31.2883 24.7158 31.4779 24.26 31.4779ZM22.3786 28.0635L24.0586 29.869C24.1308 29.9469 24.2156 29.9584 24.2593 29.9584C24.3031 29.9584 24.3879 29.9469 24.4601 29.8697L31.3926 22.4558C31.503 22.3378 31.503 22.1461 31.3933 22.0285L29.7133 20.2303L22.3786 28.0635Z" fill="white"/>
<path d="M49.4001 31.1517C48.9437 31.1517 48.515 30.9618 48.1926 30.6172L41.2595 23.2029C40.596 22.4925 40.5967 21.338 41.2602 20.6287L43.4418 18.2927C43.5752 18.1498 43.7558 18.0693 43.9448 18.0693C44.1338 18.0693 44.3151 18.1495 44.4485 18.2919L52.7885 27.1983C53.0658 27.4943 53.0665 27.974 52.7899 28.2707L50.6104 30.6138C50.2881 30.9607 49.8365 31.1688 49.4001 31.1517ZM43.9462 19.9042L42.2669 21.7023C42.1564 21.8203 42.1571 22.0117 42.2669 22.1296L49.2 29.5436C49.2716 29.6207 49.3564 29.6322 49.4001 29.6322C49.4092 29.6341 49.5287 29.6218 49.6016 29.5428L51.2809 27.7373L43.9462 19.9042Z" fill="white"/>
<path d="M45.9525 36.0134C45.7704 36.0134 45.5884 35.9392 45.4494 35.7912L39.143 29.0655L37.363 30.9597C36.5827 31.7932 35.5413 32.2529 34.4331 32.2529C33.557 32.2462 32.831 31.7142 32.5044 30.8647C32.1668 29.9844 32.3502 28.9865 32.972 28.322L36.0728 25.0018C36.9023 24.1171 37.9473 23.5558 39.0978 23.3762C39.9295 23.2364 40.7146 22.8097 41.3016 22.1757C41.435 22.0318 41.6164 21.9506 41.806 21.9502H41.8074C41.9964 21.9502 42.1778 22.0303 42.3111 22.1735L49.2408 29.5908C49.3756 29.7351 49.4506 29.9313 49.4485 30.1357C49.4465 30.3398 49.3673 30.5342 49.2297 30.6755L49.0602 30.8491C48.5578 31.3622 48.2 32.0129 48.025 32.7311L47.9277 33.1291C47.6769 34.1018 47.1398 35.0701 46.452 35.7946C46.3137 35.9404 46.1331 36.0134 45.9525 36.0134ZM39.1444 27.5478C39.5077 27.5478 39.8718 27.6951 40.1483 27.99L45.9115 34.1363C46.2033 33.7026 46.4305 33.2107 46.5534 32.7355L46.6479 32.3471C46.8487 31.5269 47.2218 30.7701 47.7373 30.1324L41.7748 23.7509C41.0619 24.3344 40.2088 24.7277 39.3111 24.8783C38.4579 25.0115 37.6895 25.4247 37.0809 26.0743L33.978 29.3964C33.7168 29.6754 33.7258 30.04 33.821 30.2886C33.8724 30.4214 34.0315 30.7304 34.4116 30.7334C35.1612 30.7334 35.8456 30.4318 36.3583 29.8838L38.1418 27.9885C38.4176 27.6947 38.781 27.5478 39.1444 27.5478Z" fill="white"/>
<path d="M26.4961 39.2263C25.8138 39.2263 25.1677 38.9124 24.723 38.3656C23.9205 37.3777 24.0046 35.8437 24.9134 34.8729L25.5762 34.1647C26.4613 33.2195 28.0044 33.2202 28.8882 34.1647L28.8937 34.1703C29.8067 35.1456 29.8067 36.7318 28.8937 37.7071L28.1545 38.4966C27.714 38.9673 27.1248 39.2263 26.4961 39.2263ZM27.2325 34.9515C26.9866 34.9515 26.7559 35.0539 26.5822 35.2394L25.9194 35.9472C25.5421 36.3501 25.488 36.9882 25.7978 37.3695C26.1348 37.7843 26.7886 37.808 27.1485 37.4222L27.8877 36.6328C28.2455 36.25 28.2455 35.6275 27.8877 35.2446C27.6994 35.0499 27.4729 34.9515 27.2325 34.9515Z" fill="white"/>
<path d="M28.8066 41.6939C28.1237 41.6939 27.4775 41.3796 27.0336 40.8321C26.2311 39.8453 26.3152 38.3113 27.2239 37.3405L27.8874 36.6319C28.7712 35.6882 30.3143 35.6874 31.1994 36.6319C32.111 37.6057 32.1117 39.1913 31.2015 40.1666L30.4595 40.963C30.0176 41.4345 29.4312 41.6939 28.8066 41.6939ZM29.5431 37.4191C29.2978 37.4191 29.0672 37.5211 28.8935 37.7066L28.23 38.4152C27.8527 38.8173 27.7985 39.4554 28.1084 39.8371C28.4419 40.2489 29.088 40.2786 29.4521 39.8898L30.1934 39.0941C30.5512 38.7112 30.5512 38.0887 30.1934 37.7066C30.0197 37.5211 29.789 37.4191 29.5431 37.4191Z" fill="white"/>
<path d="M31.1112 44.1625C30.4226 44.1625 29.7689 43.8371 29.318 43.2695C28.5398 42.2891 28.6267 40.7747 29.516 39.8217L30.1899 39.0983C30.6325 38.6242 31.2209 38.363 31.8469 38.3623C31.8476 38.3623 31.8483 38.3623 31.849 38.3623C32.4743 38.3623 33.0628 38.6224 33.5054 39.0946C33.5054 39.095 33.5088 39.0987 33.5088 39.0987C34.4218 40.074 34.4218 41.6603 33.5088 42.6356L32.7696 43.425C32.3242 43.9006 31.7351 44.1625 31.1112 44.1625ZM31.849 39.8818C31.6031 39.8822 31.3717 39.9846 31.198 40.1704L30.5241 40.8938C30.1586 41.2856 30.1044 41.9103 30.4032 42.2868C30.7457 42.7175 31.3919 42.7483 31.7636 42.3506L32.5028 41.5612C32.8606 41.1784 32.8606 40.5559 32.5028 40.173L32.4993 40.1693C32.3256 39.9838 32.095 39.8818 31.849 39.8818Z" fill="white"/>
<path d="M33.4232 46.6313C32.734 46.6313 32.0795 46.3049 31.6286 45.7362C30.8491 44.7516 30.9387 43.234 31.8315 42.2798L32.504 41.5616C33.3878 40.6179 34.9309 40.6171 35.816 41.5616L35.3165 42.1032L35.8195 41.5657C36.2621 42.0379 36.5059 42.6664 36.5052 43.3349C36.5052 44.0037 36.2614 44.6325 35.8174 45.1052L35.0733 45.8953C34.63 46.3694 34.0436 46.6313 33.4232 46.6313ZM34.1597 42.3488C33.9144 42.3488 33.6838 42.4508 33.5101 42.6363L32.8375 43.3545C32.47 43.7474 32.4144 44.3754 32.7145 44.7546C33.0543 45.1823 33.6935 45.2205 34.0687 44.8199L34.8135 44.0286C34.9865 43.8438 35.0823 43.5971 35.0823 43.3345C35.083 43.0722 34.9871 42.8259 34.8135 42.6408C34.8058 42.6322 34.7975 42.6233 34.7898 42.6144L34.7864 42.6104C34.6363 42.4512 34.4056 42.3488 34.1597 42.3488Z" fill="white"/>
<path d="M27.7691 9.2324H12.1597C11.7664 9.2324 11.4482 8.89222 11.4482 8.47264C11.4482 8.05307 11.7664 7.71289 12.1597 7.71289H27.7692C28.1624 7.71289 28.4806 8.05307 28.4806 8.47264C28.4806 8.89222 28.1624 9.2324 27.7691 9.2324Z" fill="white"/>
<path d="M27.7691 13.9053H12.1597C11.7664 13.9053 11.4482 13.5651 11.4482 13.1455C11.4482 12.7259 11.7664 12.3857 12.1597 12.3857H27.7692C28.1624 12.3857 28.4806 12.7259 28.4806 13.1455C28.4806 13.5651 28.1624 13.9053 27.7691 13.9053Z" fill="white"/>
<path d="M27.7691 46.6299H12.1597C11.7664 46.6299 11.4482 46.2897 11.4482 45.8701C11.4482 45.4505 11.7664 45.1104 12.1597 45.1104H27.7692C28.1624 45.1104 28.4806 45.4505 28.4806 45.8701C28.4806 46.2897 28.1624 46.6299 27.7691 46.6299Z" fill="white"/>
</svg>
