<svg width="53" height="53" viewBox="0 0 53 53" fill="none" xmlns="http://www.w3.org/2000/svg">
<g clip-path="url(#clip0_1449_1485)">
<path d="M10.4393 10.4393C1.58077 19.2979 1.58077 33.7026 10.4393 42.5611C14.8686 46.9904 20.6797 49.2051 26.5002 49.2051C32.3208 49.2051 38.1318 46.9904 42.5611 42.5611C51.4197 33.7026 51.4197 19.2979 42.5611 10.4393C33.7026 1.58077 19.2979 1.58077 10.4393 10.4393ZM41.2267 41.2267C33.1063 49.347 19.8942 49.347 11.7833 41.2267C3.66291 33.1063 3.66291 19.8942 11.7833 11.7833C15.8434 7.72309 21.1718 5.69773 26.5097 5.69773C31.8476 5.69773 37.1759 7.73255 41.2361 11.7833C49.3565 19.9036 49.3565 33.1158 41.2361 41.2267H41.2267Z" fill="white"/>
<path d="M26.5 0C19.4207 0 12.7673 2.75411 7.76071 7.76071C2.75411 12.7673 0 19.4207 0 26.5C0 33.5793 2.75411 40.2327 7.76071 45.2393C12.7673 50.2459 19.4207 53 26.5 53C33.5793 53 40.2327 50.2459 45.2393 45.2393C50.2459 40.2327 53 33.5793 53 26.5C53 19.4207 50.2459 12.7673 45.2393 7.76071C40.2327 2.75411 33.5793 0 26.5 0ZM43.8954 43.8954C39.2484 48.5423 33.0682 51.1071 26.5 51.1071C19.9318 51.1071 13.7516 48.5518 9.10464 43.8954C4.45768 39.2484 1.89286 33.0682 1.89286 26.5C1.89286 19.9318 4.44821 13.7516 9.10464 9.10464C13.7611 4.45768 19.9318 1.89286 26.5 1.89286C33.0682 1.89286 39.2484 4.44821 43.8954 9.10464C48.5423 13.7516 51.1071 19.9318 51.1071 26.5C51.1071 33.0682 48.5518 39.2484 43.8954 43.8954Z" fill="white"/>
<path d="M38.6996 12.9946L23.3107 23.0362C23.3107 23.0362 23.2917 23.0551 23.2823 23.0646C23.235 23.093 23.1971 23.1214 23.1592 23.1498C23.1308 23.1782 23.1214 23.216 23.093 23.2539C23.0741 23.2728 23.0551 23.2823 23.0362 23.3107L12.9946 38.6996C12.7485 39.0782 12.8053 39.5703 13.1176 39.8826C13.2974 40.0624 13.5435 40.1571 13.7896 40.1571C13.9694 40.1571 14.1492 40.1098 14.3101 40.0057L29.6991 29.9641C29.6991 29.9641 29.7369 29.9167 29.7653 29.8978C29.7937 29.8789 29.8221 29.8694 29.8505 29.841C29.8789 29.8126 29.8883 29.7842 29.9073 29.7558C29.9262 29.7274 29.9546 29.718 29.9735 29.6896L40.0151 14.3007C40.2612 13.9221 40.2044 13.4299 39.8921 13.1176C39.5798 12.7958 39.0782 12.7485 38.7091 12.9946H38.6996ZM23.9826 25.3171L27.6832 29.0176L26.0174 30.106C26.0174 30.106 25.9891 30.1249 25.9701 30.1344C25.9607 30.1344 25.9512 30.1533 25.9417 30.1628L17.0358 35.9739L23.9826 25.3266V25.3171ZM30.1628 25.9417C30.1628 25.9417 30.1439 25.9607 30.1344 25.9701C30.125 25.9891 30.1155 25.9985 30.106 26.0174L29.0176 27.6832L25.3171 23.9826L35.9644 17.0358L30.1533 25.9417H30.1628Z" fill="white"/>
<path d="M27.3709 37.9709C27.3519 37.9142 27.3235 37.8574 27.2857 37.8101C27.2573 37.7533 27.21 37.706 27.1721 37.6586C26.8219 37.3085 26.1784 37.3085 25.8282 37.6586C25.7903 37.706 25.7525 37.7533 25.7146 37.8101C25.6767 37.8574 25.6484 37.9142 25.6294 37.9709C25.601 38.0277 25.5821 38.0845 25.5726 38.1508C25.5632 38.2076 25.5537 38.2738 25.5537 38.3306C25.5537 38.5767 25.6578 38.8227 25.8282 39.0026C26.008 39.1729 26.2541 39.277 26.5001 39.277C26.7462 39.277 26.9923 39.1729 27.1721 39.0026C27.3425 38.8227 27.4466 38.5767 27.4466 38.3306C27.4466 38.2738 27.4371 38.2076 27.4276 38.1508C27.4182 38.0845 27.3992 38.0277 27.3709 37.9709Z" fill="white"/>
<path d="M26.5001 35.5667C27.0228 35.5667 27.4466 35.143 27.4466 34.6203C27.4466 34.0976 27.0228 33.6738 26.5001 33.6738C25.9774 33.6738 25.5537 34.0976 25.5537 34.6203C25.5537 35.143 25.9774 35.5667 26.5001 35.5667Z" fill="white"/>
<path d="M26.5001 19.326C27.0207 19.326 27.4466 18.9001 27.4466 18.3795C27.4466 17.859 27.0207 17.4331 26.5001 17.4331C25.9796 17.4331 25.5537 17.8495 25.5537 18.3795C25.5537 18.9095 25.9796 19.326 26.5001 19.326Z" fill="white"/>
<path d="M25.9796 15.455C26.0269 15.4929 26.0837 15.5212 26.1405 15.5402C26.1973 15.5686 26.2541 15.5875 26.3109 15.597C26.3771 15.597 26.4339 15.6159 26.5001 15.6159C26.7462 15.6159 26.9923 15.5118 27.1721 15.3414C27.3425 15.1616 27.4466 14.9155 27.4466 14.6695C27.4466 14.4234 27.3425 14.1773 27.1721 13.9975C26.8219 13.6473 26.1878 13.6473 25.8282 13.9975C25.6578 14.1773 25.5537 14.4139 25.5537 14.6695C25.5537 14.925 25.6578 15.1616 25.8282 15.3414C25.8755 15.3793 25.9228 15.4171 25.9796 15.455Z" fill="white"/>
<path d="M35.3869 34.0807C35.3869 34.0807 35.2828 34.0145 35.226 33.9956C35.1692 33.9672 35.1124 33.9482 35.0462 33.9388C34.9326 33.9104 34.8001 33.9104 34.6771 33.9388C34.6203 33.9388 34.5635 33.9672 34.5067 33.9956C34.4499 34.0145 34.3931 34.0429 34.3363 34.0807C34.289 34.1091 34.2417 34.1565 34.1944 34.1943C34.024 34.3741 33.9199 34.6202 33.9199 34.8663C33.9199 34.9231 33.9199 34.9893 33.9389 35.0461C33.9389 35.1123 33.9672 35.1691 33.9956 35.2259C34.0146 35.2827 34.043 35.3395 34.0808 35.3868C34.1092 35.4436 34.1565 35.4909 34.1944 35.5382C34.2417 35.5761 34.289 35.614 34.3363 35.6518C34.3931 35.6897 34.4499 35.7181 34.5067 35.737C34.5635 35.7654 34.6203 35.7843 34.6771 35.7938C34.7433 35.7938 34.8001 35.8127 34.8664 35.8127C34.9231 35.8127 34.9894 35.8032 35.0462 35.7938C35.1124 35.7938 35.1692 35.7654 35.226 35.737C35.2828 35.7181 35.3396 35.6897 35.3869 35.6518C35.4437 35.614 35.491 35.5761 35.5383 35.5382C35.5762 35.4909 35.614 35.4436 35.6519 35.3868C35.6897 35.3395 35.7181 35.2827 35.7371 35.2259C35.7655 35.1691 35.7844 35.1123 35.7938 35.0461C35.7938 34.9893 35.8128 34.9231 35.8128 34.8663C35.8128 34.6202 35.7087 34.3741 35.5383 34.1943C35.491 34.1565 35.4437 34.1091 35.3869 34.0807Z" fill="white"/>
<path d="M31.355 31.355C30.9858 31.7241 30.9858 32.3203 31.355 32.6894C31.5348 32.8692 31.7808 32.9639 32.0175 32.9639C32.2541 32.9639 32.5096 32.8692 32.6894 32.6894C33.0585 32.3203 33.0585 31.7241 32.6894 31.355C32.3203 30.9858 31.7241 30.9858 31.355 31.355Z" fill="white"/>
<path d="M20.9825 21.9289C21.2191 21.9289 21.4652 21.8343 21.645 21.645C22.0141 21.2759 22.0141 20.6796 21.645 20.3105C21.2759 19.9414 20.6796 19.9414 20.3105 20.3105C19.9414 20.6796 19.9414 21.2759 20.3105 21.645C20.4903 21.8343 20.7364 21.9289 20.9825 21.9289Z" fill="white"/>
<path d="M17.7738 19.0043C17.8874 19.0611 18.0104 19.08 18.1334 19.08C18.2565 19.08 18.3795 19.0611 18.4931 19.0043C18.6161 18.957 18.7202 18.8907 18.8054 18.8056C18.9852 18.6257 19.0799 18.3797 19.0799 18.1336C19.0799 18.0106 19.0609 17.8875 19.0042 17.7739C18.9568 17.6604 18.8906 17.5563 18.8054 17.4616C18.7202 17.3764 18.6161 17.3102 18.4931 17.2629C18.2659 17.1682 18.0009 17.1682 17.7738 17.2629C17.6602 17.3102 17.5561 17.3764 17.4615 17.4616C17.3763 17.5563 17.31 17.6604 17.2627 17.7739C17.2154 17.8875 17.187 18.0106 17.187 18.1336C17.187 18.3797 17.2911 18.6257 17.4615 18.8056C17.5561 18.8907 17.6602 18.957 17.7738 19.0043Z" fill="white"/>
<path d="M39.2104 26.1405C39.182 26.0837 39.1536 26.0269 39.1158 25.9701C39.0874 25.9228 39.0495 25.8755 39.0022 25.8282C38.9549 25.7903 38.9075 25.7525 38.8602 25.7146C38.8034 25.6767 38.7466 25.6484 38.6899 25.6294C38.6331 25.601 38.5763 25.5821 38.5195 25.5726C38.3302 25.5348 38.1409 25.5537 37.9706 25.6294C37.857 25.6767 37.7529 25.743 37.6583 25.8282C37.4879 26.008 37.3838 26.2541 37.3838 26.5001C37.3838 26.6232 37.4122 26.7462 37.4595 26.8598C37.5068 26.9828 37.5731 27.0775 37.6583 27.1721C37.7529 27.2573 37.857 27.3235 37.9706 27.3709C38.0841 27.4182 38.2072 27.4466 38.3302 27.4466C38.3965 27.4466 38.4533 27.4371 38.5195 27.4276C38.5763 27.4182 38.6331 27.3992 38.6899 27.3709C38.7466 27.3519 38.8034 27.3235 38.8602 27.2857C38.9075 27.2478 38.9549 27.21 39.0022 27.1721C39.0874 27.0775 39.1536 26.9734 39.2104 26.8598C39.2577 26.7462 39.2766 26.6232 39.2766 26.5001C39.2766 26.4339 39.2766 26.3771 39.2577 26.3109C39.2483 26.2541 39.2293 26.1973 39.2104 26.1405Z" fill="white"/>
<path d="M34.6203 27.4466C35.1503 27.4466 35.5667 27.0207 35.5667 26.5001C35.5667 25.9796 35.1503 25.5537 34.6203 25.5537C34.0903 25.5537 33.6738 25.9796 33.6738 26.5001C33.6738 27.0207 34.0997 27.4466 34.6203 27.4466Z" fill="white"/>
<path d="M18.3795 27.4466C18.9022 27.4466 19.326 27.0228 19.326 26.5001C19.326 25.9774 18.9022 25.5537 18.3795 25.5537C17.8568 25.5537 17.4331 25.9774 17.4331 26.5001C17.4331 27.0228 17.8568 27.4466 18.3795 27.4466Z" fill="white"/>
<path d="M13.9976 27.172C14.1774 27.3424 14.4235 27.4465 14.6696 27.4465C14.7926 27.4465 14.9156 27.4181 15.0292 27.3708C15.1428 27.3235 15.2469 27.2572 15.3415 27.172C15.4267 27.0774 15.493 26.9733 15.5403 26.8597C15.5876 26.7461 15.616 26.6231 15.616 26.5001C15.616 26.4338 15.6065 26.377 15.5971 26.3108C15.5876 26.254 15.5687 26.1972 15.5403 26.1404C15.5214 26.0836 15.493 26.0269 15.4551 25.9701C15.4173 25.9227 15.3794 25.8754 15.3415 25.8281C15.2469 25.7429 15.1428 25.6767 15.0292 25.6293C14.679 25.4779 14.2626 25.5631 13.9976 25.8281C13.9503 25.8754 13.9124 25.9227 13.884 25.9701C13.8462 26.0269 13.8178 26.0836 13.7894 26.1404C13.7705 26.1972 13.7515 26.254 13.7421 26.3108C13.7231 26.377 13.7231 26.4338 13.7231 26.5001C13.7231 26.6231 13.7421 26.7461 13.7894 26.8597C13.8462 26.9733 13.9124 27.0774 13.9976 27.172Z" fill="white"/>
</g>
<defs>
<clipPath id="clip0_1449_1485">
<rect width="53" height="53" fill="white"/>
</clipPath>
</defs>
</svg>
