<svg width="53" height="53" viewBox="0 0 53 53" fill="none" xmlns="http://www.w3.org/2000/svg">
<path d="M15.0326 22.4466C19.4045 22.4466 22.9461 18.9018 22.9461 14.5339C22.9461 10.1603 19.4045 6.61621 15.0326 6.61621C10.6582 6.61621 7.11816 10.1603 7.11816 14.5339C7.11827 18.9018 10.6582 22.4466 15.0326 22.4466Z" fill="white"/>
<path d="M25.6621 27.4239L15.0274 38.0445L4.34041 27.3574C1.914 28.8621 0 31.6065 0 34.2048V46.384H29.8979V34.2048C29.8979 31.6464 28.037 28.9418 25.6621 27.4239Z" fill="white"/>
<path d="M12.6655 33.8223L15.0271 36.1839L17.2177 33.995V29.7334H12.6655V33.8223Z" fill="white"/>
<path d="M17.2139 25.2949H12.6685V28.2088H17.2139V25.2949Z" fill="white"/>
<path d="M40.0201 31.0895C43.8416 31.0895 46.9314 27.9947 46.9314 24.1767C46.9314 20.3585 43.8416 17.2637 40.0201 17.2637C36.2029 17.2637 33.1089 20.3585 33.1089 24.1767C33.1089 27.9947 36.2029 31.0895 40.0201 31.0895Z" fill="white"/>
<path d="M48.118 34.8125L39.8839 43.0581L34.4482 37.6234V46.3839H52.9998V41.3559C52.9998 38.7045 50.7303 35.8936 48.118 34.8125Z" fill="white"/>
<path d="M39.8844 41.1842L42.0499 39.0212V36.2178H37.8931V39.193L39.8844 41.1842Z" fill="white"/>
<path d="M42.0523 32.9189H37.8921V34.8305H42.0523V32.9189Z" fill="white"/>
</svg>
