<svg width="53" height="53" viewBox="0 0 53 53" fill="none" xmlns="http://www.w3.org/2000/svg">
<path d="M16.2681 45.8725C15.7273 45.8161 15.4616 45.4371 15.4389 45.0872C15.4106 44.6535 15.7203 44.2797 16.1925 44.1777L16.2297 44.1697L20.2292 44.0962L20.7688 41.1448L4.66592 41.1995C2.68659 41.1659 1.18131 39.886 1.00126 38.0875L1 38.0727L1.00315 11.087L1.00441 11.0722C1.15613 9.61672 2.24905 8.45305 3.78895 8.10714L3.82861 8.09802H3.86953C9.08291 8.0302 14.6041 8 21.7704 8C25.1184 8 28.5098 8.00627 31.7892 8.01254C35.0749 8.0188 38.4688 8.02507 41.8068 8.02507C44.5812 8.02507 47.0535 8.02052 49.3633 8.0114H49.3942L49.4244 8.01596C50.8869 8.23821 51.8211 8.86734 52.2807 9.93813C52.6742 10.8562 52.6622 11.9395 52.6496 12.9864C52.5703 19.9069 52.5766 26.955 52.5835 33.7718C52.5848 35.1663 52.5861 36.5551 52.5867 37.9433C52.5892 38.7189 52.1643 39.5686 51.4497 40.2171C50.8019 40.8052 49.9948 41.1426 49.2368 41.1426H32.7568L33.3272 44.1441L37.4408 44.156L37.4905 44.1697C37.9022 44.2814 38.1629 44.6119 38.1541 45.012C38.1459 45.4092 37.867 45.7403 37.4609 45.8354L37.4168 45.8457L16.2888 45.8742L16.2681 45.8719V45.8725ZM31.3945 44.1441L30.741 41.1528L22.7129 41.1967L22.1236 44.1367L31.3938 44.1441H31.3945ZM41.3887 39.3543C42.2109 39.3543 43.0583 39.3748 43.9554 39.3965C44.8494 39.4181 45.7686 39.4403 46.6556 39.4403C47.6025 39.4403 48.3963 39.4141 49.0826 39.3611C49.6574 39.3161 50.6111 38.7508 50.6111 38.2277V37.3831L2.97493 37.4395V38.0003C2.97493 38.8374 3.9073 39.4204 4.74336 39.4204C4.77232 39.4204 4.80191 39.4198 4.83087 39.4181H4.84535H7.21186C9.67595 39.4187 12.1419 39.4198 14.6079 39.4198C22.9785 39.4198 31.9825 39.4119 41.1105 39.3554C41.2024 39.3554 41.2956 39.3549 41.3887 39.3549V39.3543ZM9.1339 35.7105C9.13894 35.6359 9.1339 35.5447 9.12886 35.4615C9.12194 35.351 9.11501 35.2375 9.12572 35.1247C9.49905 31.0444 11.955 29.5491 15.7959 28.4601C15.9697 28.4111 16.2007 28.3655 16.445 28.3176C16.7711 28.2538 17.1746 28.1746 17.327 28.1011C17.4542 28.0241 17.6581 27.3579 17.7066 26.7539C16.817 25.9224 16.2441 25.042 16.0036 24.1359C15.9382 24.1165 15.8714 24.1 15.8022 24.0829C15.6121 24.0362 15.3968 23.9826 15.16 23.8561C14.21 23.3483 13.5584 22.0844 13.6434 20.915C13.702 20.1069 14.0923 19.4761 14.7464 19.125C14.0438 15.9081 15.5907 13.1494 18.8052 11.907C19.691 11.5645 20.7688 11.3759 21.8397 11.3759C23.2102 11.3759 24.4662 11.6836 25.3772 12.2421C25.5125 12.3253 25.6523 12.4456 25.7876 12.5624C25.8657 12.6296 26.0105 12.7544 26.0552 12.7761C26.0999 12.7977 26.1779 12.8114 26.2604 12.8257C26.3624 12.8433 26.4896 12.8661 26.6168 12.9146C27.9187 13.4109 28.79 14.3489 29.2068 15.7035C29.5889 16.9453 29.492 18.2423 29.332 19.1444C30.3815 19.826 30.5162 21.0039 30.2846 21.8969C30.0252 22.8953 29.191 23.9661 27.8985 24.1678C27.6813 24.9753 27.3061 25.6711 26.7553 26.2917C26.6262 26.437 26.506 26.5311 26.4191 26.6C26.2636 26.722 26.2472 26.7351 26.2762 27.024C26.3108 27.3699 26.4405 27.7534 26.6268 28.064C29.8779 28.7615 33.3228 29.8927 34.3905 32.9307C34.6556 33.6835 34.8199 34.5999 34.8797 35.6553H50.6137C50.6199 34.2807 50.6262 32.9056 50.6325 31.5311C50.664 24.879 50.6968 18.0041 50.6772 11.2329C50.6092 10.6636 50.3933 10.2624 50.0338 10.0407C49.6995 9.83498 49.369 9.79338 48.9441 9.79338C48.8339 9.79338 48.7237 9.79623 48.6066 9.79908C48.4927 9.80193 48.363 9.80535 48.2358 9.80535C48.2125 9.80535 48.1898 9.80535 48.1666 9.80535C45.0068 9.77401 41.6015 9.75862 37.7555 9.75862C33.5929 9.75862 29.3604 9.77629 25.2676 9.79338C21.1742 9.81048 16.9411 9.82815 12.7772 9.82815C9.7282 9.82815 6.99277 9.81903 4.41536 9.79965C3.75558 9.82074 2.97619 10.5262 2.97619 11.1029V35.7117H9.13516L9.1339 35.7105ZM17.3018 29.9087C15.3111 30.3002 12.7822 31.102 11.773 32.7159C11.3783 33.3461 11.1309 34.3246 11.0383 34.9708C10.9861 35.3339 10.971 35.555 10.9691 35.6855L33.0168 35.6541C32.93 34.752 32.8028 33.993 32.5044 33.2675C31.8408 31.6553 29.9553 30.5549 26.742 29.9058C25.7039 31.2154 23.9418 31.9938 22.0015 31.9938C20.0612 31.9938 18.3223 31.2165 17.3018 29.9093V29.9087ZM18.9103 29.0208C19.5644 29.8038 20.7027 30.2688 21.9801 30.2688C23.2574 30.2688 24.4051 29.7998 25.0504 29.0089C25.0183 28.9524 24.9818 28.8949 24.9434 28.8356C24.8597 28.704 24.774 28.5689 24.7092 28.4116C24.6821 28.3461 24.6532 28.2367 24.6041 28.0498C24.5896 27.9939 24.5713 27.9238 24.5518 27.8526C23.7573 28.2355 22.8274 28.4447 21.9064 28.4447C20.9853 28.4447 20.165 28.2561 19.4341 27.897C19.3183 28.2908 19.1231 28.6555 18.9103 29.0214V29.0208ZM15.7575 20.5993C15.6618 20.5993 15.6158 20.6255 15.5743 20.7036C15.3942 21.0409 15.5951 21.8741 15.8664 22.1847C16.0553 22.4001 16.2303 22.408 16.496 22.4206C16.8303 22.436 17.3358 22.4599 17.6424 23.0805C17.7979 23.3962 17.8942 23.6675 17.9868 23.9302C18.1599 24.4197 18.2959 24.8061 18.7586 25.3115C19.5846 26.2142 20.6983 26.7111 21.8938 26.7111C23.7302 26.7111 25.3941 25.5788 26.0325 23.8931C26.0665 23.8031 26.0936 23.6897 26.1219 23.57C26.2189 23.162 26.3813 22.4793 27.1733 22.3887C27.2104 22.3841 27.2482 22.3824 27.286 22.3824C27.3892 22.3824 27.4742 22.3984 27.5422 22.4109C27.5825 22.4183 27.6171 22.4251 27.6404 22.4251C27.6436 22.4251 27.6467 22.4251 27.6499 22.4251C28.0603 22.3858 28.4192 21.7436 28.4853 21.1914C28.5275 20.8392 28.4381 20.6546 28.3833 20.638C28.3096 20.6158 28.2605 20.6112 28.2328 20.6112C28.1699 20.6112 28.1353 20.6329 28.0358 20.7024C27.9281 20.7771 27.7808 20.8797 27.5636 20.9087C27.5032 20.9167 27.4434 20.9213 27.3867 20.9213C26.5085 20.9213 26.4134 20.063 26.3561 19.5501C26.3366 19.3735 26.3177 19.2065 26.2818 19.1011C26.1635 18.754 25.7971 18.5455 25.3727 18.3038C25.1096 18.154 24.8383 17.999 24.6179 17.7978C24.5518 17.7374 24.4838 17.6473 24.3774 17.5054C24.3396 17.4553 24.283 17.3795 24.2282 17.3111C23.8939 17.5203 23.5281 17.6832 23.2064 17.8177C21.8346 18.3905 20.4477 18.6617 18.7101 18.697H18.6843C18.5332 18.697 18.4098 18.672 18.3192 18.6532C18.2675 18.6429 18.2203 18.6332 18.1939 18.6332C18.163 18.6332 18.1001 18.6839 18.0522 18.7312C17.8117 18.9666 17.7349 19.3786 17.6669 19.7422C17.5939 20.1303 17.5316 20.4659 17.2879 20.6825C17.0997 20.85 16.8964 20.9355 16.6829 20.9355C16.4148 20.9355 16.2152 20.8027 16.0698 20.7058C16.0314 20.6802 15.9665 20.6369 15.9426 20.6283C15.8733 20.6101 15.8097 20.6004 15.7562 20.6004L15.7575 20.5993ZM21.8321 13.0969C19.7886 13.0969 17.3018 14.174 16.7182 16.1702C16.5772 16.6529 16.5079 17.1863 16.5086 17.7898C16.7302 17.514 16.9946 17.2849 17.2294 17.0815L17.3326 16.992H17.4756C19.3 16.9869 21.2246 16.9054 22.9395 15.9907C23.0472 15.9332 23.2115 15.8181 23.3846 15.6955C23.9141 15.3228 24.2855 15.0789 24.6198 15.0789C25.2487 15.0835 25.4974 15.6596 25.6793 16.0802C25.7536 16.2523 25.8304 16.4295 25.9047 16.5133C26.0439 16.6694 26.2957 16.8125 26.5626 16.9641C26.9504 17.1846 27.3515 17.4126 27.5976 17.7699C27.6014 17.3767 27.5699 17.0011 27.5019 16.633C27.405 16.107 27.06 14.8498 25.9438 14.5307C25.8707 14.5096 25.7769 14.4982 25.6781 14.4857C25.5188 14.4658 25.3387 14.443 25.1738 14.3717C25.0082 14.2999 24.8571 14.1637 24.6821 14.0059C24.548 13.8851 24.4095 13.7608 24.2924 13.6936C23.6093 13.3026 22.7588 13.0964 21.8327 13.0964L21.8321 13.0969Z" fill="white"/>
<path d="M16.2897 45.7119C15.8509 45.6657 15.6362 45.3603 15.6174 45.0776C15.5941 44.7237 15.8478 44.4183 16.2343 44.3351L16.2532 44.3311L20.3819 44.2553L20.9799 40.9831L4.66619 41.0384C2.78317 41.0059 1.35093 39.7869 1.17969 38.0733V38.0659L1.18221 11.0951V11.0877C1.32763 9.70174 2.36767 8.59391 3.83265 8.26509L3.8528 8.26053H3.87357C9.08506 8.19272 14.605 8.16309 21.7719 8.16309C25.1111 8.16309 28.5063 8.16935 31.7901 8.17562C35.0739 8.18189 38.4691 8.18816 41.8076 8.18816C44.5834 8.18816 47.055 8.1836 49.3655 8.17448H49.3806L49.3957 8.17676C52.5221 8.6526 52.4957 10.9549 52.4724 12.9865C52.393 19.9093 52.3993 26.9603 52.4063 33.7788C52.4075 35.1676 52.4088 36.5563 52.4094 37.9445C52.4113 38.6785 52.0059 39.4855 51.3247 40.1038C50.7102 40.6617 49.9491 40.9814 49.2377 40.9814H32.5456L33.177 44.3054L37.4146 44.3174L37.4391 44.3242C37.7722 44.4143 37.9824 44.6833 37.9755 45.0087C37.9686 45.3323 37.7438 45.6019 37.4158 45.6788L37.3938 45.684L16.2992 45.7124L16.2891 45.7113L16.2897 45.7119ZM31.6126 44.3054L30.8886 40.9899L22.5645 41.0355L21.9111 44.298L31.6126 44.306V44.3054ZM41.3896 39.5157C42.2112 39.5157 43.0586 39.5362 43.9563 39.5578C44.8478 39.5795 45.7695 39.6017 46.6565 39.6017C47.6084 39.6017 48.4073 39.5755 49.0986 39.5214C49.7514 39.4707 50.7902 38.8575 50.7902 38.2272V37.2208L2.79702 37.2772V37.9992C2.79702 38.9316 3.82321 39.5812 4.74425 39.5812C4.77636 39.5812 4.80909 39.5806 4.8412 39.5789H4.85065H7.21275C9.67684 39.5795 12.1428 39.5806 14.6088 39.5806C22.9801 39.5806 31.9853 39.5727 41.1126 39.5162C41.2045 39.5162 41.2971 39.5157 41.3896 39.5157ZM9.28148 35.8719C9.32618 35.7625 9.31674 35.6052 9.30729 35.4519C9.301 35.3476 9.2947 35.2394 9.30352 35.1374C9.66866 31.1471 12.0786 29.6825 15.849 28.6135C16.0159 28.5662 16.2438 28.5217 16.4849 28.4739C16.8368 28.4049 17.2366 28.3263 17.411 28.2425C17.6508 28.1268 17.8554 27.2634 17.8901 26.6913C16.9627 25.8393 16.3798 24.9384 16.1556 24.0123C16.053 23.9764 15.9529 23.9519 15.8484 23.9263C15.6608 23.8801 15.4663 23.8323 15.2503 23.7166C14.3545 23.2379 13.74 22.0377 13.8206 20.9248C13.8792 20.1224 14.277 19.5183 14.9469 19.2083C14.1983 16.017 15.6942 13.2839 18.8747 12.0547C19.7391 11.7208 20.7917 11.5367 21.8393 11.5367C23.1746 11.5367 24.3953 11.8342 25.2767 12.375C25.4001 12.4502 25.5342 12.5665 25.6645 12.6787C25.7772 12.7762 25.9056 12.8867 25.9717 12.9181C26.0397 12.9506 26.1304 12.9665 26.2267 12.9836C26.3255 13.0013 26.4376 13.0207 26.5478 13.0628C27.7968 13.5392 28.6341 14.4419 29.0352 15.7458C29.4192 16.9949 29.3096 18.3045 29.1371 19.2186C30.1954 19.842 30.3383 20.9812 30.1104 21.8588C29.8536 22.8492 29.0282 23.8824 27.7521 24.0232C27.5456 24.8523 27.1735 25.5618 26.6158 26.1892C26.4968 26.3232 26.3885 26.4081 26.3016 26.4765C26.1216 26.6178 26.0605 26.6657 26.0976 27.0372C26.1373 27.4321 26.2896 27.8629 26.5087 28.2032C29.7459 28.8921 33.1745 30.0045 34.2196 32.9781C34.4928 33.7548 34.6571 34.7088 34.7087 35.8155H50.7908C50.7971 34.3857 50.804 32.9559 50.8103 31.5261C50.8418 24.8734 50.8745 17.9934 50.855 11.2227C50.7826 10.5993 50.5403 10.1565 50.1336 9.90575C49.7627 9.67723 49.3894 9.6305 48.9431 9.6305C48.831 9.6305 48.7189 9.63335 48.6006 9.6362C48.4816 9.63905 48.3588 9.64247 48.2348 9.64247C48.2121 9.64247 48.1901 9.64247 48.1674 9.64247C45.0083 9.61113 41.6024 9.59574 37.7545 9.59574C33.5919 9.59574 29.3587 9.61341 25.2654 9.6305C21.172 9.6476 16.9388 9.66527 12.7755 9.66527C9.72595 9.66527 6.98989 9.65615 4.41121 9.63677C3.65574 9.65843 2.7964 10.438 2.7964 11.1019V35.8725H9.28085L9.28148 35.8719ZM17.382 29.7276C15.3101 30.1225 12.6761 30.9454 11.6184 32.6356C11.2111 33.2864 10.9561 34.2888 10.8617 34.9499C10.7817 35.5072 10.7849 35.7477 10.7962 35.8468L33.211 35.8149C33.1342 34.9544 33.0184 34.0529 32.6715 33.2106C31.9771 31.5238 30.0116 30.3829 26.6636 29.7241C25.6676 31.0457 23.9345 31.8315 22.0011 31.8315C20.0677 31.8315 18.3591 31.0474 17.3808 29.7276H17.382ZM18.7016 29.034C19.379 29.9099 20.5959 30.4296 21.9809 30.4296C23.366 30.4296 24.5905 29.9059 25.2578 29.0238C25.2131 28.9337 25.1571 28.8454 25.0985 28.7531C25.0192 28.6283 24.9367 28.4989 24.8775 28.3542C24.8542 28.2972 24.8247 28.1866 24.7787 28.0111C24.7497 27.9017 24.705 27.7296 24.6673 27.6077C23.8558 28.0436 22.8837 28.2818 21.9073 28.2818C20.9308 28.2818 20.0652 28.063 19.3148 27.6464C19.2103 28.149 18.9572 28.5987 18.7016 29.0335V29.034ZM15.7584 20.437C15.5947 20.437 15.4858 20.4991 15.4146 20.6324C15.2019 21.0313 15.4172 21.9295 15.7275 22.2839C15.9661 22.5569 16.2079 22.5677 16.488 22.5808C16.8135 22.5962 17.2183 22.615 17.4809 23.1456C17.6326 23.4527 17.727 23.72 17.8183 23.9787C17.9902 24.4642 18.1381 24.8837 18.6229 25.4136C19.4835 26.3539 20.6456 26.8719 21.896 26.8719C23.8092 26.8719 25.5398 25.6957 26.204 23.9445C26.2418 23.8454 26.2695 23.728 26.2991 23.6032C26.3973 23.19 26.532 22.6241 27.1981 22.5478C27.2277 22.5443 27.2579 22.5426 27.2881 22.5426C27.3731 22.5426 27.4449 22.5557 27.5085 22.5677C27.5582 22.5768 27.601 22.5848 27.6426 22.5848C27.652 22.5848 27.6615 22.5848 27.6715 22.5837C28.1897 22.5341 28.5907 21.8303 28.665 21.2069C28.7109 20.8216 28.6234 20.5373 28.4415 20.4826C28.364 20.4592 28.2948 20.4472 28.235 20.4472C28.1084 20.4472 28.0335 20.4996 27.9296 20.5715C27.827 20.6427 27.7112 20.723 27.5399 20.7458C27.4877 20.7527 27.4373 20.7567 27.3889 20.7567C26.6724 20.7567 26.5937 20.0483 26.5358 19.5314C26.515 19.3462 26.4955 19.1713 26.4546 19.051C26.3167 18.647 25.9056 18.4128 25.47 18.1643C25.2156 18.0196 24.9525 17.8697 24.7472 17.6811C24.6925 17.6309 24.6282 17.546 24.5275 17.4115C24.4583 17.3192 24.3424 17.1653 24.265 17.0856C23.9112 17.3289 23.4982 17.5158 23.1337 17.6674C21.7852 18.2304 20.4203 18.4971 18.7079 18.5319H18.6846C18.5549 18.5319 18.4466 18.5102 18.3597 18.492C18.2968 18.4789 18.242 18.4681 18.1954 18.4681C18.1564 18.4681 18.0758 18.4681 17.9222 18.6179C17.6458 18.8886 17.564 19.3257 17.4916 19.7115C17.4242 20.0722 17.3656 20.384 17.1636 20.564C17.0099 20.7008 16.8482 20.7703 16.6838 20.7703C16.4742 20.7703 16.3092 20.6604 16.177 20.572C16.1116 20.5281 16.0429 20.4826 15.9964 20.4706C15.9082 20.4472 15.8283 20.4358 15.7578 20.4358L15.7584 20.437ZM21.833 12.9346C19.7227 12.9346 17.1535 14.0538 16.5466 16.1282C16.32 16.9026 16.3067 17.6862 16.3508 18.3547C16.4282 18.2162 16.5082 18.0726 16.6114 17.9381C16.8312 17.6503 17.1094 17.4092 17.3543 17.1967L17.4059 17.1522H17.4771C19.3261 17.1471 21.2777 17.0639 23.031 16.1287C23.1488 16.0661 23.3175 15.9475 23.4957 15.8216C23.9798 15.4808 24.3443 15.2397 24.6207 15.2397H24.6238C25.1269 15.2432 25.3415 15.7395 25.5134 16.1384C25.5965 16.3299 25.6746 16.5111 25.7659 16.6143C25.9232 16.7915 26.1877 16.9414 26.4678 17.1009C26.8386 17.3118 27.222 17.5301 27.4468 17.856L27.4518 17.864L27.7471 18.3518C27.8037 17.7261 27.7811 17.1619 27.6791 16.6069C27.5771 16.0518 27.2088 14.7234 25.9988 14.377C25.9113 14.3519 25.8106 14.3393 25.7035 14.3257C25.5499 14.3063 25.3919 14.2863 25.2515 14.2259C25.1136 14.1661 24.972 14.039 24.8083 13.8914C24.6679 13.7649 24.5225 13.6338 24.3884 13.5569C23.677 13.1495 22.7931 12.9346 21.833 12.9346Z" fill="white"/>
<path d="M39.8988 29.6142C35.7658 29.6142 32.4033 26.5705 32.4033 22.8293C32.4033 19.0881 35.7658 16.0444 39.8988 16.0444C44.0319 16.0444 47.3944 19.0881 47.3944 22.8293C47.3944 26.5705 44.0319 29.6142 39.8988 29.6142ZM39.9247 17.7831C36.8537 17.7831 34.3556 20.0444 34.3556 22.8242C34.3556 25.604 36.8537 27.8653 39.9247 27.8653C42.9957 27.8653 45.4937 25.604 45.4937 22.8242C45.4937 20.0444 42.9957 17.7831 39.9247 17.7831Z" fill="white"/>
<path d="M39.897 29.4518C35.8621 29.4518 32.5796 26.4805 32.5796 22.8282C32.5796 19.1759 35.8621 16.2046 39.897 16.2046C43.9318 16.2046 47.2143 19.1759 47.2143 22.8282C47.2143 26.4805 43.9318 29.4518 39.897 29.4518ZM39.9228 17.6207C36.7536 17.6207 34.1749 19.9549 34.1749 22.8236C34.1749 25.6924 36.7536 28.0266 39.9228 28.0266C43.092 28.0266 45.6706 25.6924 45.6706 22.8236C45.6706 19.9549 43.092 17.6207 39.9228 17.6207Z" fill="white"/>
<path d="M38.4574 26.3959C37.8222 26.3959 37.3885 26.0289 37.3255 25.4386C37.2362 24.6038 37.2771 23.7007 37.3161 22.8272C37.3514 22.0357 37.3879 21.2169 37.3262 20.4699L37.3243 20.4488L37.3255 20.4272C37.3627 19.8363 37.8354 19.4072 38.4511 19.4072C38.706 19.4072 38.9603 19.4841 39.1863 19.6295L43.5543 22.1799L43.5814 22.2044C43.8174 22.4181 43.9326 22.6733 43.9137 22.9429C43.8936 23.2392 43.7111 23.5229 43.4007 23.7412C42.7265 24.2158 41.9309 24.6449 41.161 25.0597C40.4446 25.446 39.7044 25.8454 39.078 26.2734L39.0264 26.3087L38.9647 26.3252C38.7897 26.3719 38.6191 26.3959 38.4586 26.3959H38.4574ZM39.2367 24.1936L41.3127 22.9081L41.2051 22.8466C40.5561 22.4773 39.8882 22.0973 39.2367 21.699V24.1936Z" fill="white"/>
<path d="M38.4588 26.2345C37.9155 26.2345 37.5586 25.9314 37.5045 25.4231C37.4163 24.5997 37.4566 23.7017 37.4956 22.8333C37.5315 22.0368 37.568 21.2134 37.5051 20.4573V20.4464V20.4356C37.5366 19.933 37.935 19.5684 38.4525 19.5684C38.6715 19.5684 38.8912 19.6356 39.0876 19.7627L43.443 22.3057L43.4562 22.3177C43.6552 22.4977 43.7521 22.7103 43.737 22.9319C43.72 23.1815 43.562 23.4231 43.2926 23.6128C42.6272 24.0812 41.8359 24.508 41.0711 24.9205C40.351 25.3086 39.6063 25.7103 38.9718 26.1439L38.946 26.1616L38.9151 26.1701C38.7565 26.2129 38.6029 26.2345 38.4594 26.2345H38.4588ZM39.0593 24.5006L41.6395 22.9034C41.5269 22.839 41.4142 22.7752 41.3015 22.7108C40.56 22.2892 39.7958 21.8538 39.0593 21.394V24.5006Z" fill="white"/>
<path d="M32.3357 40.821L33.0289 44.4677L37.3904 44.4802C37.957 44.6341 37.9205 45.3954 37.3741 45.5242L16.3122 45.5527C15.6398 45.482 15.6215 44.6346 16.2775 44.4933L20.5353 44.4152L21.1925 40.8222L4.66722 40.878C2.85535 40.8467 1.52131 39.6807 1.35889 38.06L1.36203 11.104C1.49739 9.80355 2.47195 8.73846 3.87712 8.42275C19.0237 8.22672 34.2068 8.39711 49.3672 8.33727C52.2726 8.77949 52.3204 10.794 52.2952 12.9863C52.1995 21.2973 52.2285 29.6271 52.2323 37.9466C52.2361 39.2972 50.7579 40.8222 49.2394 40.8222H32.3357V40.821ZM50.9706 35.9771C51.0065 27.7248 51.0594 19.4726 51.0361 11.214C50.9732 10.6566 50.766 10.0982 50.2366 9.77221C49.5774 9.36589 48.8981 9.48841 48.1723 9.48101C33.5885 9.33683 18.9966 9.58472 4.41225 9.47531C3.56675 9.49753 2.62052 10.3404 2.62052 11.1017V35.9481L2.71496 36.0336H9.38828C9.57274 35.8107 9.45753 35.4358 9.48334 35.1508C9.8359 31.3008 12.096 29.8476 15.9042 28.7677C16.3166 28.6509 17.1766 28.5392 17.4964 28.3853C17.8943 28.1939 18.0592 27.0142 18.073 26.6278C17.2408 25.8756 16.5438 24.9593 16.3128 23.8959C15.9709 23.7574 15.6832 23.7591 15.3426 23.5773C13.8651 22.7881 13.3262 20.0025 15.1538 19.2999C14.3775 16.2254 15.7172 13.4513 18.9462 12.2033C20.7751 11.4966 23.4885 11.4727 25.1782 12.5087C25.408 12.6495 25.7197 12.98 25.8903 13.0609C26.0609 13.1419 26.2819 13.1356 26.4795 13.2114C29.1067 14.2126 29.3913 17.0546 28.9418 19.2982C30.9922 20.3775 29.905 23.7375 27.6071 23.8731C27.4188 24.7011 27.0631 25.43 26.4789 26.0876C26.1119 26.5002 25.8575 26.405 25.9224 27.0513C25.9665 27.4884 26.1421 27.9733 26.3971 28.3443C29.458 28.9905 32.9986 30.0294 34.0519 33.0264C34.378 33.9541 34.5033 35.0078 34.5392 35.976H50.9706V35.9771ZM27.8652 18.881C27.9804 18.1009 28.0006 17.3612 27.857 16.581C27.6801 15.6179 27.1582 14.5397 26.054 14.224C25.8204 14.1574 25.534 14.1699 25.33 14.0816C25.1103 13.9864 24.7886 13.5955 24.4851 13.4217C21.7919 11.8802 17.215 13.2182 16.3758 16.0881C16.1063 17.0096 16.1195 17.9385 16.2196 18.881C16.4368 18.6252 16.5527 18.3026 16.7598 18.0313C16.9669 17.7601 17.2213 17.5384 17.4794 17.315C19.4543 17.3099 21.3877 17.1948 23.1234 16.2693C23.5036 16.0664 24.2685 15.4003 24.6249 15.4025C25.2085 15.4065 25.3149 16.3622 25.6296 16.7167C26.0219 17.1572 26.9291 17.4068 27.298 17.9419L27.8652 18.881ZM24.2547 16.8905C23.9034 17.1532 23.4734 17.3509 23.061 17.523C21.6313 18.1197 20.2746 18.3408 18.7064 18.3727C18.3236 18.3807 18.158 18.1539 17.7942 18.5106C17.2301 19.0634 17.4019 20.1296 17.0418 20.451C16.5955 20.8482 16.3216 20.3889 16.049 20.3177C14.7584 19.9786 15.1015 21.8278 15.5901 22.3857C16.1989 23.081 16.9065 22.3755 17.3201 23.2132C17.7557 24.0953 17.7211 24.6806 18.4879 25.5183C20.9344 28.1921 25.1952 27.1094 26.375 23.999C26.5494 23.5391 26.5161 22.7909 27.2231 22.71C27.4075 22.6889 27.5278 22.7618 27.6927 22.7465C28.7327 22.6473 29.2559 20.5582 28.5004 20.3313C27.9351 20.1615 27.8577 20.5428 27.5158 20.5889C26.6048 20.7114 26.8038 19.5204 26.6275 19.0058C26.3813 18.2855 25.4074 18.0564 24.8767 17.5703C24.7439 17.4489 24.3875 16.8688 24.2553 16.891L24.2547 16.8905ZM19.1786 27.3721C19.1206 27.9841 18.8071 28.5153 18.4955 29.0447C19.9825 31.1116 23.9972 31.1053 25.4609 29.043C25.3539 28.7825 25.1543 28.5626 25.0473 28.2993C24.9881 28.1545 24.8244 27.3772 24.7502 27.3732C23.1183 28.3369 20.7953 28.4047 19.1786 27.3721ZM17.4662 29.5479C15.3855 29.9325 12.5776 30.7771 11.4646 32.5568C11.0617 33.2007 10.7916 34.1952 10.6864 34.9297C10.6613 35.1075 10.5435 35.9264 10.6751 36.0091L33.4066 35.9766C33.3254 35.0232 33.2127 34.0567 32.8412 33.1546C31.9133 30.8996 28.9757 30.0015 26.5853 29.5439C24.5707 32.3653 19.4625 32.3921 17.4668 29.5479H17.4662ZM50.9706 37.0599L2.62052 37.1169V38.0002C2.62052 39.0419 3.76758 39.793 4.85231 39.7411C16.9348 39.7446 29.0639 39.7537 41.1155 39.679C43.6426 39.6636 46.6601 39.8751 49.116 39.6836C49.8607 39.6255 50.9706 38.9581 50.9706 38.2281V37.0599ZM31.8314 44.4682L31.0369 40.8285L22.4176 40.8758L21.7213 44.3508L21.7994 44.4597L31.8314 44.4677V44.4682Z" fill="white"/>
<path d="M47.0359 22.8275C47.0359 26.396 43.8397 29.2893 39.8974 29.2893C35.9551 29.2893 32.7588 26.396 32.7588 22.8275C32.7588 19.259 35.9551 16.3657 39.8974 16.3657C43.8397 16.3657 47.0359 19.259 47.0359 22.8275ZM45.8486 22.8229C45.8486 19.8602 43.1956 17.4587 39.9225 17.4587C36.6495 17.4587 33.9965 19.8602 33.9965 22.8229C33.9965 25.7857 36.6495 28.1871 39.9225 28.1871C43.1956 28.1871 45.8486 25.7857 45.8486 22.8229Z" fill="white"/>
<path d="M43.3293 22.4322C43.7171 22.7832 43.5786 23.2066 43.182 23.4858C41.9017 24.3866 40.1825 25.1143 38.8631 26.0151C38.2601 26.1769 37.7452 26.0037 37.6816 25.4071C37.5141 23.8419 37.815 22.0362 37.6822 20.4447C37.7219 19.8117 38.4112 19.5211 38.9859 19.896L43.3293 22.4316V22.4322ZM38.8814 24.806L41.9646 22.8972C40.9392 22.3103 39.9037 21.7365 38.9116 21.1028C38.7196 21.0875 38.8814 21.1644 38.8814 21.1877V24.806Z" fill="white"/>
</svg>
