<svg width="79" height="78" viewBox="0 0 79 78" fill="none" xmlns="http://www.w3.org/2000/svg">
<path d="M70.1555 65.9412L69.5945 62.7359C69.1126 59.9765 67.1683 57.5778 64.3939 56.3204L52.5831 50.9624C51.133 50.306 50.7184 48.2302 50.6766 48.1179C50.5487 47.9311 50.3322 47.8187 49.9997 47.8187C49.9898 47.8187 49.9796 47.8187 49.9698 47.8187C49.6868 47.8542 49.455 48.0434 49.3785 48.3024L48.0156 53.0253L39.5 68.2832L31.0056 53.0761L29.6199 48.3024C29.5461 48.0446 29.3137 47.8542 28.9248 47.8115C28.6797 47.8115 28.4546 47.9262 28.2847 48.209C28.2807 48.2303 27.8706 50.3037 26.4165 50.9624L14.6038 56.3204C11.8305 57.5789 9.88684 59.9763 9.40466 62.7359L8.84364 65.9412C8.6233 67.1973 8.93683 68.9526 10.1459 69.8397C10.2882 69.9449 10.4667 70.1011 10.6927 70.2997C12.8668 72.204 19.4826 77.9997 39.5 77.9997C59.5135 77.9997 66.131 72.204 68.3056 70.2997C68.532 70.1023 68.7111 69.9449 68.8537 69.8397C70.0632 68.9514 70.3765 67.196 70.1555 65.9412Z" fill="url(#paint0_linear_1449_1101)"/>
<path d="M45.1285 19.0937C47.9907 24.3972 51.9104 31.6631 53.6213 32.7181L53.9459 32.918L55.1359 23.7443C55.462 19.7145 54.1499 15.9001 51.4417 13.0034C48.4813 9.83712 44.1288 8.02148 39.5002 8.02148C34.8713 8.02148 30.5186 9.83712 27.5582 13.0034C24.8497 15.8989 23.5372 19.7145 23.864 23.7537L24.9466 32.8352L25.3087 32.4449C26.0557 31.6418 27.4016 30.8033 29.1054 29.7411C33.0458 27.2857 38.9683 23.5954 43.6201 16.3154C44.0509 17.096 44.5639 18.0469 45.1285 19.0937Z" fill="url(#paint1_linear_1449_1101)"/>
<path d="M15.7546 36.9715C15.9541 37.7912 16.689 38.3637 17.5416 38.3637C17.6857 38.3637 17.83 38.3458 17.9713 38.3128L21.069 37.5782C21.66 37.4386 22.1383 37.0163 22.3529 36.4545L22.4805 36.4627L22.4225 36.2333C22.4922 35.9447 22.4941 35.662 22.4282 35.3899L20.8133 28.7911C20.426 26.4906 20.2296 24.5237 20.2296 22.9422C20.2296 12.4509 28.8743 3.916 39.4998 3.916C50.125 3.916 58.7694 12.4509 58.7694 22.9422C58.7694 24.5225 58.573 26.4906 58.1575 28.8644L56.5709 35.3899C56.5476 35.487 56.5332 35.5851 56.5277 35.688L56.4644 35.8276C56.4434 35.8738 54.3078 40.4334 47.6741 41.719C47.3297 41.0911 46.6655 40.6947 45.9312 40.6947H41.9343C40.8409 40.6947 39.9514 41.5735 39.9514 42.6534V44.1969C39.9514 45.2767 40.8409 46.1556 41.9343 46.1556H45.9312C46.7625 46.1556 47.5047 45.6327 47.7877 44.8652C51.758 44.1934 54.4135 42.5435 55.9478 41.2684C57.5375 39.9485 58.4878 38.5964 58.9541 37.8218L61.028 38.3126C61.1691 38.3457 61.3135 38.3635 61.4576 38.3635C62.3102 38.3635 63.0448 37.791 63.2444 36.9714L64.8311 30.4459C65.0674 29.4724 64.4579 28.4907 63.4724 28.2566L62.3269 27.9857C62.5988 26.0767 62.7367 24.3806 62.7367 22.9422C62.7364 10.2926 52.3124 0 39.4998 0C26.6871 0 16.2631 10.2926 16.2631 22.9425C16.2631 24.3808 16.4009 26.0768 16.6728 27.9848L15.5263 28.2569C14.5407 28.491 13.9315 29.4727 14.1682 30.4462L15.7546 36.9715Z" fill="url(#paint2_linear_1449_1101)"/>
<defs>
<linearGradient id="paint0_linear_1449_1101" x1="70.2211" y1="62.9056" x2="8.77832" y2="62.9056" gradientUnits="userSpaceOnUse">
<stop stop-color="#F35871"/>
<stop offset="1" stop-color="#E03651"/>
</linearGradient>
<linearGradient id="paint1_linear_1449_1101" x1="55.1848" y1="20.4697" x2="23.8149" y2="20.4697" gradientUnits="userSpaceOnUse">
<stop stop-color="#F35871"/>
<stop offset="1" stop-color="#E03651"/>
</linearGradient>
<linearGradient id="paint2_linear_1449_1101" x1="64.882" y1="23.0778" x2="14.1172" y2="23.0778" gradientUnits="userSpaceOnUse">
<stop stop-color="#F35871"/>
<stop offset="1" stop-color="#E03651"/>
</linearGradient>
</defs>
</svg>
