<svg width="53" height="53" viewBox="0 0 53 53" fill="none" xmlns="http://www.w3.org/2000/svg">
<path d="M35.8931 37.3857C35.8925 37.3857 35.8925 37.3857 35.8918 37.3864C35.8911 37.3871 35.8905 37.3877 35.8892 37.3884L35.8931 37.3857Z" fill="white"/>
<path d="M36.7837 36.5889L36.7831 36.5895C36.7823 36.5901 36.7823 36.5909 36.7817 36.5915L36.7837 36.5889Z" fill="white"/>
<path d="M16.1816 36.5889L16.187 36.5949C16.1864 36.5943 16.1864 36.5943 16.1864 36.5935C16.1857 36.5928 16.1843 36.5915 16.1837 36.5909L16.1816 36.5889Z" fill="white"/>
<path d="M22.8643 34.6381L22.8501 34.6348C22.8508 34.6348 22.8514 34.6353 22.8514 34.6353C22.8521 34.6353 22.8521 34.6353 22.8521 34.6353L22.8643 34.6381Z" fill="white"/>
<path d="M44.7386 19.3021C44.2917 18.6014 43.7538 18.0919 43.3472 17.6402C43.1439 17.4187 42.9738 17.2175 42.8619 17.0573C42.7481 16.8964 42.701 16.7813 42.6923 16.7448C42.6822 16.7072 42.67 16.6332 42.6707 16.5235C42.666 16.2454 42.7602 15.7615 42.8908 15.2076C43.0146 14.6482 43.1748 14.0194 43.1803 13.2878C43.1803 12.7971 43.0961 12.2237 42.7804 11.6771C42.602 11.3682 42.3738 11.113 42.1363 10.9097C41.7162 10.5537 41.2746 10.3423 40.8587 10.1754C40.234 9.9297 39.6369 9.7796 39.1698 9.61946C38.9375 9.54138 38.7397 9.46254 38.599 9.38995C38.4563 9.3185 38.3749 9.25461 38.3459 9.22433L38.3453 9.223C38.2988 9.18325 38.1776 9.00693 38.0626 8.70739C37.8808 8.26048 37.7192 7.59477 37.4635 6.89062C37.3315 6.53723 37.1726 6.16765 36.9331 5.79882C36.6941 5.43331 36.3589 5.059 35.8945 4.7905C35.3466 4.47477 34.7738 4.38997 34.2831 4.39063C33.5513 4.39536 32.9227 4.55626 32.3634 4.68005C31.8094 4.81066 31.3247 4.90492 31.0474 4.90019C30.9371 4.90085 30.8636 4.88874 30.826 4.87804C30.7782 4.87057 30.5891 4.78103 30.3414 4.57982C29.9638 4.28359 29.4906 3.78482 28.911 3.30158C28.6175 3.06062 28.2911 2.81966 27.8938 2.6211C27.5 2.42433 27.0194 2.27148 26.4822 2.27148C25.7614 2.27281 25.1616 2.53942 24.6965 2.83224C23.9965 3.27981 23.4869 3.81766 23.0353 4.22349C22.8138 4.42745 22.6126 4.59771 22.4524 4.70882C22.2915 4.82258 22.177 4.86971 22.1407 4.87785C22.1017 4.88864 22.0284 4.90076 21.9187 4.9C21.6413 4.90473 21.1574 4.81047 20.6034 4.67986C20.0433 4.55541 19.4147 4.39518 18.6823 4.38969C18.1916 4.38969 17.6188 4.47458 17.0722 4.78889L17.0581 4.79703L17.0695 4.79097C16.7613 4.96937 16.5068 5.19746 16.3043 5.43511C15.9488 5.85514 15.7374 6.29608 15.5705 6.71203C15.3256 7.33734 15.1755 7.93368 15.0152 8.40084C14.9365 8.63376 14.8576 8.83099 14.7856 8.97229C14.7137 9.11426 14.6504 9.19574 14.6208 9.22404C14.5797 9.27051 14.4027 9.39241 14.1031 9.50816C13.6555 9.68988 12.9899 9.85077 12.2857 10.1073C11.9323 10.2385 11.5628 10.3974 11.1939 10.6376C10.8284 10.8766 10.4548 11.2125 10.1863 11.6769C9.87053 12.2235 9.78573 12.7969 9.78573 13.2883C9.79122 14.02 9.95211 14.6487 10.0759 15.2087C10.2072 15.7626 10.3014 16.2467 10.2968 16.5239C10.2968 16.6337 10.2854 16.7077 10.2745 16.7454L10.2751 16.7441C10.2671 16.7925 10.1769 16.9824 9.97492 17.2294C9.67879 17.6077 9.17992 18.0802 8.69668 18.6598C8.45572 18.9527 8.214 19.2791 8.01544 19.6762C7.81886 20.07 7.66602 20.5505 7.66602 21.0877C7.66734 21.8086 7.93395 22.409 8.22668 22.8742C8.67434 23.5749 9.21286 24.0851 9.61935 24.5361C9.8233 24.7582 9.99357 24.9588 10.1053 25.1197C10.2191 25.2806 10.2662 25.3951 10.2749 25.4321L10.281 25.4556L10.2742 25.4307C10.285 25.4691 10.2965 25.5425 10.2965 25.6521C10.3012 25.9295 10.207 26.4135 10.0756 26.9674C9.95183 27.5274 9.79094 28.1561 9.78545 28.8878C9.78545 29.3798 9.87034 29.9527 10.186 30.4993C10.3636 30.8076 10.5919 31.0634 10.8301 31.266C11.2495 31.6228 11.691 31.8341 12.1077 32.001C12.7323 32.2467 13.3293 32.3961 13.7965 32.5563C14.0294 32.6351 14.2267 32.7138 14.368 32.7859C14.5099 32.8579 14.5914 32.9212 14.6197 32.9514C14.6628 32.9898 14.7692 33.1399 14.8749 33.399C14.9826 33.6549 15.0909 34.0034 15.2094 34.3918L15.2087 34.3892C15.3097 34.721 15.4193 35.0811 15.5661 35.454C15.7142 35.8256 15.8972 36.2147 16.186 36.5936C16.3051 36.7519 16.4499 36.9046 16.6121 37.0487L12.3385 46.2778L18.2552 46.1008L21.9468 50.7286L26.1383 41.6745L30.3285 50.728L34.0219 46.1002L39.9386 46.2773L35.8339 37.4144C35.8534 37.4036 35.8729 37.3975 35.8917 37.3867C36.268 37.1693 36.5602 36.8832 36.783 36.5898C37.0953 36.1765 37.2852 35.7538 37.4386 35.3526C37.6648 34.7508 37.8101 34.1786 37.9655 33.7337C38.041 33.5116 38.1171 33.3245 38.187 33.1912C38.2557 33.0566 38.317 32.9799 38.3453 32.9522C38.387 32.9052 38.5641 32.784 38.8636 32.6682C39.3113 32.4865 39.9769 32.3249 40.6804 32.0691C41.0338 31.9379 41.4033 31.779 41.7722 31.5387C42.1377 31.3003 42.5112 30.9645 42.7798 30.5C43.0962 29.9528 43.1804 29.3793 43.1804 28.8886C43.1756 28.157 43.0147 27.5283 42.8909 26.9689C42.7603 26.4149 42.6661 25.9309 42.6708 25.6529C42.6701 25.5426 42.6823 25.4691 42.6924 25.4314C42.7011 25.383 42.7906 25.1931 42.9918 24.9461C43.288 24.5685 43.7862 24.0953 44.2694 23.5157C44.5104 23.2229 44.752 22.8958 44.9499 22.4993C45.1465 22.1055 45.2993 21.6249 45.2993 21.0877C45.2979 20.3669 45.0314 19.7672 44.7386 19.3021ZM42.4042 21.4068C42.2171 21.7172 41.7856 22.1655 41.3131 22.6751C41.0775 22.9335 40.8311 23.2128 40.6015 23.5399C40.3747 23.8671 40.1565 24.2474 40.0294 24.7193C39.9419 25.045 39.9136 25.3594 39.9136 25.6528C39.9183 26.3886 40.0785 27.0227 40.203 27.5833C40.3336 28.1379 40.4279 28.6205 40.4231 28.8885C40.4231 28.978 40.415 29.0413 40.4069 29.0763L40.3934 29.1194L40.3442 29.1705C40.2776 29.2304 40.1032 29.336 39.8407 29.4384C39.4483 29.5967 38.8876 29.7433 38.2858 29.9446C37.9843 30.0476 37.6692 30.1654 37.3489 30.3283C37.0292 30.4911 36.6993 30.6997 36.3964 31.002C36.006 31.3945 35.771 31.8266 35.5906 32.2338C35.3241 32.8471 35.1719 33.438 35.0137 33.9281C34.8636 34.4182 34.6954 34.7924 34.5883 34.921L34.5863 34.9236L34.5331 34.9836L34.517 34.9963L34.5076 35.0024L34.5123 34.999L34.4698 35.0125C34.4349 35.0206 34.3722 35.0286 34.282 35.0286C34.0148 35.0333 33.5322 34.9391 32.9768 34.8085C32.4162 34.6839 31.7827 34.5238 31.0471 34.5191C30.7529 34.5191 30.4393 34.5473 30.1134 34.6341L30.0844 34.6422L30.0031 34.6677L30.0037 34.6691C29.2457 34.9114 28.7322 35.3402 28.2799 35.7292C27.8289 36.1285 27.4398 36.5202 27.112 36.7827L27.1141 36.7814C26.9256 36.9341 26.7627 37.0405 26.6523 37.0924C26.5393 37.1462 26.4942 37.1476 26.4821 37.1476C26.4706 37.1476 26.4255 37.1462 26.3125 37.0924C26.2027 37.0405 26.0405 36.9348 25.854 36.7834C25.5202 36.5154 25.1223 36.1123 24.6592 35.705C24.1908 35.3045 23.6543 34.8602 22.8513 34.6347C22.5255 34.5473 22.2119 34.519 21.9176 34.519C21.1826 34.5237 20.5485 34.6838 19.9879 34.8084C19.4332 34.939 18.9499 35.0332 18.6821 35.0285C18.5925 35.0285 18.5292 35.0205 18.4942 35.0124L18.4511 34.9989L18.4491 34.9976L18.3805 34.9255L18.3791 34.9236L18.3771 34.9215C18.3152 34.8414 18.2216 34.6745 18.1301 34.4402C18.0372 34.2066 17.945 33.9118 17.8461 33.5867L17.8454 33.5841C17.7276 33.2017 17.6025 32.777 17.4193 32.3368C17.2342 31.8986 16.9926 31.4288 16.5698 31.002C16.1054 30.543 15.5925 30.296 15.1192 30.1048C14.4078 29.8268 13.728 29.6666 13.2406 29.4828C12.999 29.3939 12.8118 29.3031 12.7048 29.2324C12.5944 29.159 12.5742 29.122 12.5729 29.1194L12.5722 29.118L12.5588 29.0756C12.5513 29.0406 12.5426 28.978 12.5426 28.8877C12.5379 28.6204 12.6321 28.1378 12.7635 27.5832C12.8879 27.0226 13.0488 26.3885 13.0536 25.6521C13.0536 25.3586 13.0246 25.0448 12.9385 24.7198L12.9378 24.7184C12.764 24.0884 12.443 23.6246 12.1307 23.2274C11.6548 22.6371 11.1499 22.1626 10.8221 21.7601C10.6579 21.5622 10.5414 21.3892 10.4842 21.2713C10.4249 21.1508 10.4229 21.1024 10.4229 21.0875C10.4215 21.0734 10.4297 20.9772 10.5603 20.7691C10.7481 20.4596 11.1802 20.0105 11.6528 19.5017C11.8883 19.2432 12.1353 18.9639 12.3643 18.6368C12.5918 18.3097 12.8099 17.9294 12.9378 17.4575L12.9385 17.4562C13.0246 17.1304 13.0536 16.8173 13.0536 16.5238C13.0488 15.7875 12.8879 15.1534 12.7635 14.5928C12.6321 14.0381 12.5379 13.5555 12.5426 13.2882C12.5426 13.198 12.5513 13.1354 12.5588 13.1004L12.5722 13.058L12.5729 13.0567L12.6221 13.0048C12.688 12.9456 12.863 12.8399 13.1249 12.7376C13.5173 12.5788 14.0787 12.432 14.6805 12.2307C14.982 12.1283 15.2977 12.0099 15.6182 11.847C15.9371 11.6841 16.2677 11.4747 16.5707 11.1731C17.029 10.7087 17.2755 10.1964 17.4659 9.72395C17.7439 9.01318 17.9048 8.33326 18.0886 7.84529C18.1774 7.603 18.2683 7.41523 18.3396 7.30809C18.4103 7.20171 18.446 7.18023 18.4513 7.17682L18.4937 7.16338C18.5294 7.15524 18.5927 7.14654 18.6823 7.14654C18.9508 7.14181 19.4334 7.23607 19.988 7.36743C20.5488 7.49189 21.1828 7.65212 21.9186 7.65685C22.2121 7.65685 22.5257 7.62865 22.8515 7.54101C23.4808 7.36866 23.9452 7.0483 24.3431 6.73531C24.9328 6.26078 25.4087 5.75519 25.8111 5.42745C26.0091 5.26248 26.182 5.14673 26.2999 5.08881C26.4203 5.02957 26.4688 5.02824 26.4823 5.02824C26.4965 5.02682 26.5935 5.03496 26.802 5.16623C27.1117 5.35334 27.5614 5.78548 28.0703 6.25803C28.3287 6.4936 28.6081 6.73995 28.9353 6.9688C29.2624 7.19632 29.6427 7.41371 30.1145 7.54167C30.4397 7.62855 30.7534 7.65676 31.0475 7.65676C31.7833 7.65203 32.4173 7.4918 32.9781 7.36734C33.5334 7.23598 34.016 7.14181 34.2833 7.1472C34.3734 7.14654 34.436 7.15534 34.4711 7.16272L34.5135 7.17616L34.5653 7.22528C34.6253 7.29191 34.7309 7.467 34.8332 7.72944C34.9914 8.12193 35.1382 8.68269 35.3394 9.28443C35.4424 9.58671 35.5609 9.90169 35.7231 10.2221C35.8866 10.5411 36.0954 10.8717 36.3975 11.1746L36.4197 11.1961L36.3968 11.1732C36.862 11.6323 37.3741 11.8793 37.8468 12.0705C38.5583 12.3485 39.2381 12.5087 39.7248 12.6932C39.9671 12.7814 40.1542 12.8722 40.2612 12.9436C40.3717 13.017 40.3925 13.0546 40.3946 13.0574L40.4072 13.0998C40.4153 13.1347 40.4235 13.1973 40.4235 13.2875C40.4282 13.5555 40.334 14.0381 40.2034 14.5928C40.0789 15.1535 39.9187 15.7875 39.914 16.5233C39.914 16.8167 39.9422 17.1311 40.029 17.4569C40.2027 18.0869 40.5238 18.5507 40.8362 18.9485C41.3114 19.5381 41.8163 20.0128 42.144 20.4152C42.3082 20.6132 42.424 20.7861 42.4812 20.9039C42.5405 21.0244 42.5426 21.0735 42.5426 21.0877C42.5435 21.1027 42.5355 21.1989 42.4042 21.4068Z" fill="white"/>
<path d="M26.4821 9.62305C20.1502 9.62371 15.0182 14.7556 15.0176 21.0876C15.0169 24.3974 16.4237 27.3867 18.6699 29.4767C20.5607 31.2423 23.0594 32.3739 25.8137 32.5319H25.8143C25.8164 32.5319 25.8184 32.5326 25.8204 32.5326L25.817 32.5319C26.0405 32.5461 26.2627 32.5521 26.482 32.5521C32.8148 32.5515 37.9459 27.4203 37.9466 21.0875C37.946 14.7556 32.8149 9.62371 26.4821 9.62305ZM33.1272 27.732C31.4229 29.4344 29.0805 30.4838 26.4821 30.4843C26.2977 30.4843 26.1186 30.4797 25.945 30.4682L25.9376 30.4676C23.6759 30.339 21.635 29.4142 20.0801 27.9643C18.2345 26.2438 17.0861 23.8064 17.0854 21.0877C17.0861 18.4895 18.1355 16.1471 19.8377 14.4434C21.5414 12.7411 23.8839 11.6917 26.4821 11.691C29.0804 11.6917 31.4228 12.7411 33.1264 14.4434C34.8288 16.1471 35.8782 18.4895 35.8789 21.0877C35.8783 23.6859 34.8289 26.029 33.1272 27.732Z" fill="white"/>
</svg>
