<svg width="53" height="53" viewBox="0 0 53 53" fill="none" xmlns="http://www.w3.org/2000/svg">
<g clip-path="url(#clip0_1449_645)">
<path d="M28.7004 13.1616L51.0882 20.0829C51.3847 20.1741 51.6068 20.3082 51.7595 20.4736L51.8094 20.5371C51.9865 20.7597 52.0393 21.0083 51.9728 21.2748C51.9199 21.4822 51.7927 21.678 51.5902 21.8523C51.3015 22.1054 50.8083 22.3593 50.142 22.565L29.6496 28.9015C28.9254 29.1241 28.0937 29.2717 27.3393 29.3271C26.5457 29.3879 25.803 29.3477 25.3029 29.193L2.91218 22.2699C2.61862 22.1787 2.39649 22.0473 2.24384 21.8819C2.02465 21.6413 1.95518 21.3695 2.02759 21.078C2.08043 20.8724 2.20764 20.6775 2.40726 20.5005C2.69886 20.2474 3.19204 19.9962 3.85744 19.7905L24.3508 13.4549C25.0749 13.2322 25.9067 13.082 26.6611 13.0266C27.4547 12.9658 28.2004 13.006 28.6994 13.1607L28.7004 13.1616ZM49.9864 21.1728L28.2258 14.4438C27.9234 14.3499 27.3911 14.332 26.7834 14.3776C26.1347 14.4259 25.4301 14.5502 24.8283 14.7379L4.33594 21.0736C4.21656 21.1093 4.11088 21.1442 4.01401 21.18L25.7746 27.909C26.0799 28.0029 26.6093 28.0208 27.2169 27.9752C27.8657 27.9269 28.5702 27.8026 29.172 27.6176L49.6644 21.281C49.7838 21.2435 49.8895 21.2077 49.9864 21.1719V21.1728Z" fill="white"/>
<path d="M40.8696 24.4855C40.8696 24.11 41.2023 23.806 41.6133 23.806C42.0243 23.806 42.357 24.11 42.357 24.4855V33.6448C42.357 33.913 42.1847 34.1437 41.9381 34.2555C36.748 36.995 31.6391 38.3666 26.538 38.3666C21.4369 38.3666 16.3192 36.9879 11.1633 34.2277C10.9304 34.1008 10.7974 33.8755 10.7974 33.6448H10.7944V24.2218C10.7944 23.8462 11.1271 23.5449 11.5381 23.5449C11.9491 23.5449 12.2818 23.8462 12.2818 24.2218V33.2576C17.0746 35.7593 21.8039 37.0111 26.539 37.0111C31.2741 37.0111 36.0278 35.7567 40.8706 33.2523V24.4855H40.8696Z" fill="white"/>
<path d="M13.5996 25.0907C13.5996 24.7151 13.9323 24.4111 14.3433 24.4111C14.7543 24.4111 15.087 24.7151 15.087 25.0907V37.3757C15.087 37.7512 14.7543 38.0552 14.3433 38.0552C13.9323 38.0552 13.5996 37.7512 13.5996 37.3757V25.0907Z" fill="white"/>
<path d="M13.5949 36.6963H15.0931C15.4258 36.6963 15.7056 36.8966 15.8035 37.1702L17.2625 40.5714C17.4122 40.9183 17.2233 41.3117 16.8407 41.4485C16.8133 41.4583 16.7849 41.4664 16.7575 41.4744C15.9503 41.6997 15.1459 41.8142 14.3445 41.8142C13.5431 41.8142 12.7162 41.6979 11.8982 41.4646C11.5068 41.3555 11.2876 40.9782 11.4099 40.6205L11.4265 40.5723L12.9051 37.1308C13.0186 36.8617 13.2994 36.6999 13.5959 36.6972L13.5949 36.6963ZM14.5872 38.0544H14.0989L13.1115 40.3478C13.5225 40.4185 13.9325 40.4542 14.3435 40.4542C14.7545 40.4542 15.1645 40.4185 15.5755 40.3478L14.5881 38.0544H14.5872Z" fill="white"/>
<path d="M14.5823 25.732C14.1938 25.8509 13.772 25.6614 13.6419 25.3064C13.5117 24.9541 13.7192 24.5688 14.1047 24.4498L26.761 20.5363C27.1495 20.4147 27.5713 20.6043 27.7014 20.9592C27.8316 21.3142 27.6241 21.6969 27.2386 21.8185L14.5813 25.732H14.5823Z" fill="white"/>
</g>
<defs>
<clipPath id="clip0_1449_645">
<rect width="50" height="28.8136" fill="white" transform="translate(2 13)"/>
</clipPath>
</defs>
</svg>
