<svg width="1098" height="1321" viewBox="0 0 1098 1321" fill="none" xmlns="http://www.w3.org/2000/svg">
<g clip-path="url(#clip0_130_1352)">
<path d="M843.081 343.296C880.833 459.69 867.163 560.439 806.562 612.78C758.936 653.929 686.294 662.403 601.955 636.772C579.06 629.819 556.127 620.609 533.422 609.352C530.216 597.691 526.836 586.038 523.094 574.389C522.75 573.307 522.477 572.19 522.125 571.111C516.218 552.981 509.745 534.887 502.539 516.907C442.429 366.875 352.703 268.31 273.954 265.766C242.141 264.751 215.643 280.326 202.725 307.468C178.963 357.273 205.628 430.71 277.839 514.275C291.158 529.687 305.104 544.215 319.308 558.289C322.394 561.334 325.519 564.254 328.643 567.237C341.805 579.848 355.251 591.865 369.007 603.255C370.26 604.293 371.49 605.381 372.749 606.409C400.596 629.141 429.407 649.558 458.981 666.854C477.357 748.903 480.775 829.396 467.534 901.133C449.283 1000 402.363 1069.22 335.349 1096.05C268.498 1123.01 186.626 1105.23 105.199 1046.26C17.8303 983.053 -56.9654 881.547 -105.458 760.462C-123.53 715.319 -137.221 669.16 -146.156 623.262C-146.265 622.723 -146.368 622.209 -146.465 621.685L-230.934 637.796C-230.041 653.765 -249.066 729.624 -318.188 832.795L-246.627 880.718C-223.526 846.23 -204.518 812.951 -189.448 782.16C-188.099 785.581 -186.737 789.017 -185.382 792.462C-130.909 928.491 -45.6327 1043.38 54.7252 1116.02C151.361 1185.96 251.952 1209.89 341.133 1184.88C350.002 1182.4 358.777 1179.43 367.366 1175.97C462.764 1137.78 528.417 1045.7 552.202 916.734C564.033 852.6 564.449 782.822 554.519 711.316C561.977 713.976 569.421 716.896 576.889 719.172C647.627 740.665 713.675 743.102 770.515 727.161C805.006 717.491 836.106 701.039 862.827 677.957C950.526 602.209 973.746 467.168 924.974 316.755L843.083 343.305L843.081 343.296ZM412.829 527.675C402.265 518.56 391.985 508.957 381.895 499.085C379.953 497.176 377.962 495.386 376.041 493.454C364.674 482.063 353.601 470.262 342.998 457.971C298.277 406.254 284.542 371.115 281.286 354.237C307.402 364.874 363.777 412.519 414.24 528.886C413.775 528.481 413.298 528.097 412.822 527.686L412.829 527.675Z" fill="#E03751" fill-opacity="0.3"/>
<path d="M592.562 223.695C606.714 267.189 618.067 312.327 620.53 356.459L674.094 359.326C680.937 307.176 677.591 256.311 671.233 206.029C667.892 180.88 663.505 155.897 657.829 130.859C651.935 105.619 645.642 81.1522 634.353 53.4674L538.79 102.977C548.998 118.333 559.281 139.183 568.215 159.665C577.243 180.415 585.374 201.923 592.564 223.703L592.562 223.695Z" fill="#E03751" fill-opacity="0.3"/>
<path d="M766.034 374.987C785.75 326.228 795.284 276.151 801.752 225.883C804.836 200.698 806.853 175.42 807.649 149.759C808.275 123.849 808.331 98.5866 804.355 68.9517L699.424 92.885C705.446 110.314 710.168 133.079 713.669 155.143C717.2 177.501 719.67 200.356 721.156 223.239C723.932 268.893 723.588 315.44 714.893 358.774L766.028 374.997L766.034 374.987Z" fill="#E03751" fill-opacity="0.3"/>
</g>
<defs>
<clipPath id="clip0_130_1352">
<rect width="1332.87" height="1025.48" fill="white" transform="translate(-446 325.848) rotate(-14.1506)"/>
</clipPath>
</defs>
</svg>
