<svg width="9" height="16" viewBox="0 0 9 16" fill="none" xmlns="http://www.w3.org/2000/svg">
<path fill-rule="evenodd" clip-rule="evenodd" d="M0.292787 15.6947C0.105316 15.5072 0 15.2529 0 14.9877C0 14.7225 0.105316 14.4682 0.292787 14.2807L6.58579 7.98771L0.292787 1.69471C0.110629 1.50611 0.00983372 1.25351 0.0121121 0.991311C0.0143906 0.729114 0.11956 0.478302 0.304968 0.292894C0.490376 0.107485 0.741189 0.00231622 1.00339 3.78025e-05C1.26558 -0.00224062 1.51818 0.0985542 1.70679 0.280712L7.99979 6.57371C8.37473 6.94877 8.58536 7.45738 8.58536 7.98771C8.58536 8.51804 8.37473 9.02666 7.99979 9.40171L1.70679 15.6947C1.51926 15.8822 1.26495 15.9875 0.999786 15.9875C0.734622 15.9875 0.480314 15.8822 0.292787 15.6947Z" fill="#E03651"/>
</svg>
