<svg width="9" height="16" viewBox="0 0 9 16" fill="none" xmlns="http://www.w3.org/2000/svg">
<path fill-rule="evenodd" clip-rule="evenodd" d="M8.29257 0.292787C8.48005 0.480314 8.58536 0.734622 8.58536 0.999786C8.58536 1.26495 8.48005 1.51926 8.29257 1.70679L1.99957 7.99979L8.29257 14.2928C8.47473 14.4814 8.57553 14.734 8.57325 14.9962C8.57097 15.2584 8.4658 15.5092 8.28039 15.6946C8.09498 15.88 7.84417 15.9852 7.58197 15.9875C7.31978 15.9897 7.06717 15.8889 6.87857 15.7068L0.585573 9.41379C0.210631 9.03873 0 8.53012 0 7.99979C0 7.46946 0.210631 6.96084 0.585573 6.58579L6.87857 0.292787C7.0661 0.105316 7.32041 0 7.58557 0C7.85074 0 8.10505 0.105316 8.29257 0.292787Z" fill="#E03651"/>
</svg>
